<svg width="25" height="25" viewBox="0 0 25 25" fill="none" xmlns="http://www.w3.org/2000/svg">
<path d="M5.62915 15.3469V14.2259H6.92915V10.7686H5.80814V9.91137C6.13469 9.84858 6.41103 9.77322 6.63712 9.68529C6.86321 9.59739 7.08299 9.49061 7.29654 9.365H8.31393V14.2259H9.43495V15.3469H5.62915ZM12.4242 15.4599C12.1227 15.4599 11.8433 15.4222 11.5858 15.3469C11.3346 15.2652 11.1148 15.1522 10.9264 15.0077C10.7442 14.8633 10.5998 14.6906 10.493 14.4896C10.3926 14.2887 10.3423 14.0657 10.3423 13.8208C10.3423 13.4566 10.4397 13.1583 10.6343 12.9259C10.8353 12.6935 11.0771 12.502 11.3597 12.3512V12.3135C11.1273 12.1377 10.9358 11.9399 10.7851 11.7201C10.6343 11.494 10.559 11.2208 10.559 10.9005C10.559 10.6493 10.6061 10.4232 10.7003 10.2222C10.7945 10.015 10.9264 9.83916 11.0959 9.69471C11.2655 9.55029 11.4665 9.44036 11.6988 9.365C11.9375 9.28963 12.1949 9.25195 12.4713 9.25195C12.7413 9.25195 12.9894 9.29279 13.2155 9.37442C13.4416 9.44978 13.6331 9.55971 13.7901 9.70413C13.9471 9.84232 14.0696 10.015 14.1575 10.2222C14.2455 10.4232 14.2894 10.6462 14.2894 10.8911C14.2894 11.18 14.2109 11.4375 14.0539 11.6635C13.8969 11.8834 13.7148 12.0624 13.5075 12.2005V12.2382C13.7964 12.3952 14.0413 12.5962 14.2423 12.8411C14.4433 13.086 14.5438 13.4063 14.5438 13.802C14.5438 14.0406 14.4935 14.2604 14.393 14.4614C14.2926 14.6624 14.1481 14.8382 13.9597 14.9889C13.7776 15.1334 13.5546 15.2496 13.2909 15.3375C13.0334 15.4191 12.7445 15.4599 12.4242 15.4599ZM12.801 11.8614C13.0459 11.5788 13.1684 11.2867 13.1684 10.9853C13.1684 10.7529 13.1024 10.5677 12.9706 10.4295C12.8449 10.2851 12.6691 10.2128 12.443 10.2128C12.2609 10.2128 12.1039 10.2693 11.972 10.3824C11.8401 10.4954 11.7742 10.6681 11.7742 10.9005C11.7742 11.1454 11.8684 11.337 12.0568 11.4751C12.2452 11.6133 12.4933 11.7421 12.801 11.8614ZM12.4524 14.4991C12.6848 14.4991 12.8764 14.4394 13.0271 14.3201C13.1778 14.1945 13.2532 14.0061 13.2532 13.7549C13.2532 13.623 13.2218 13.5099 13.159 13.4157C13.1024 13.3215 13.0177 13.2367 12.9046 13.1614C12.7916 13.0797 12.6565 13.0044 12.4995 12.9353C12.3488 12.8662 12.1793 12.7909 11.9909 12.7092C11.859 12.8348 11.7491 12.9793 11.6611 13.1425C11.5732 13.3058 11.5293 13.4785 11.5293 13.6606C11.5293 13.9244 11.6203 14.1317 11.8024 14.2824C11.9846 14.4268 12.2013 14.4991 12.4524 14.4991ZM16.9018 14.4614V12.728H15.2439V11.7483H16.9018V10.015H17.9192V11.7483H19.5772V12.728H17.9192V14.4614H16.9018Z" fill="white"/>
<path d="M23 12C23 18.0795 18.0708 23 12 23C5.92924 23 1 18.0795 1 12C1 5.92053 5.92924 1 12 1C18.0708 1 23 5.92053 23 12Z" stroke="white"/>
</svg>
