<svg width="37" height="30" viewBox="0 0 37 30" fill="none" xmlns="http://www.w3.org/2000/svg">
<mask id="mask0_200_733" style="mask-type:luminance" maskUnits="userSpaceOnUse" x="0" y="0" width="37" height="30">
<path d="M0 0L36.2376 5.02609e-07L36.2376 30L-8.00298e-07 30L0 0Z" fill="white"/>
</mask>
<g mask="url(#mask0_200_733)">
<mask id="mask1_200_733" style="mask-type:luminance" maskUnits="userSpaceOnUse" x="0" y="0" width="37" height="30">
<path fill-rule="evenodd" clip-rule="evenodd" d="M10.3073 6.91775C10.1282 6.95004 9.94491 6.96725 9.75772 6.96725C9.56164 6.96725 9.36961 6.94811 9.18436 6.9133L7.98599 11.5936L11.4772 12.6213L10.3073 6.91775ZM4.44774 8.7767C4.6502 9.12671 4.76662 9.53416 4.76662 9.96791C4.76662 10.1942 4.73587 10.4129 4.67689 10.6204L7.62998 11.489L8.82486 6.82377C8.31879 6.66287 7.86919 6.37667 7.51279 6.00055L4.44774 8.7767ZM19.446 8.19908C19.3644 8.40096 19.2416 8.58274 19.0881 8.73319L21.0882 10.402L22.0535 8.73609L19.446 8.19908ZM23.9782 3.39361C23.8827 3.20198 23.8129 2.99448 23.7738 2.77674L12.8361 3.61136C12.8435 3.69896 12.8479 3.78656 12.8479 3.87667C12.8479 4.24216 12.7845 4.59256 12.6683 4.91686L16.5517 6.92916C16.8062 6.39505 17.3504 6.02627 17.9808 6.02627C18.3778 6.02627 18.7402 6.17227 19.0184 6.4138L23.9782 3.39361ZM24.6688 4.22031C24.4777 4.07779 24.3089 3.90491 24.1699 3.71134L19.2708 6.69362C19.4535 6.95159 19.5605 7.26583 19.5605 7.60598C19.5605 7.68565 19.5551 7.76378 19.5431 7.84055L22.2486 8.39806L24.6688 4.22031ZM29.2718 9.84705C29.498 9.33614 29.8509 8.89505 30.2916 8.5634L27.1688 4.39802C26.8381 4.57864 26.4598 4.68074 26.0574 4.68074C25.6693 4.68074 25.3044 4.58618 24.9826 4.41736L22.6317 8.47715L29.2718 9.84705ZM29.001 11.4039C28.9956 11.3258 28.9931 11.2475 28.9931 11.1688C28.9931 10.8308 29.0436 10.5049 29.1401 10.198L22.4356 8.81479L21.3773 10.6436L24.1619 12.9674L29.001 11.4039ZM30.5541 13.9531C29.7832 13.4806 29.2238 12.698 29.05 11.7783L24.498 13.248L29.2727 17.2337L30.5541 13.9531ZM33.9094 21.103C34.0239 21.0104 34.1521 20.9352 34.2907 20.8807L32.7609 14.3926C32.5965 14.4183 32.4273 14.4307 32.256 14.4307C31.7654 14.4307 31.3011 14.3228 30.8832 14.1292L29.5732 17.4842L33.9094 21.103ZM27.2515 23.4273C27.7425 23.704 28.1268 24.1511 28.3238 24.6871L33.406 22.4461C33.3921 22.3689 33.3861 22.2881 33.3861 22.2065C33.3861 21.8955 33.4857 21.6074 33.6549 21.3732L29.4307 17.8475L27.2515 23.4273ZM16.2274 14.0194C16.3775 13.6288 16.6263 13.2861 16.9443 13.0248L11.6699 6.30396C11.3746 6.5366 11.0358 6.71741 10.6678 6.83073L11.8804 12.7406L16.2274 14.0194ZM16.2591 15.8064C16.1377 15.5204 16.0713 15.205 16.0713 14.8733C16.0713 14.7024 16.0884 14.5361 16.123 14.3752L11.9651 13.1521L12.8235 17.3353L16.2591 15.8064ZM17.7746 17.1674C17.2113 16.997 16.7354 16.6257 16.4308 16.1361L12.8999 17.7069L14.4398 25.2139C14.6904 25.256 14.9275 25.3377 15.1445 25.4519L17.7746 17.1674ZM19.7734 16.8793C19.398 17.1252 18.948 17.2678 18.466 17.2678C18.354 17.2678 18.2451 17.261 18.1376 17.2455L15.4688 25.6554C15.9114 25.9872 16.2357 26.4693 16.3664 27.0258L23.7326 26.0104C23.699 25.8501 23.6812 25.6846 23.6812 25.5138C23.6812 24.8233 23.9747 24.2 24.4425 23.763L19.7734 16.8793ZM20.8203 14.4361C20.8466 14.5783 20.8604 14.7243 20.8604 14.8733C20.8604 15.5801 20.5544 16.2138 20.0673 16.653L24.7332 23.5311C25.1164 23.2708 25.5778 23.1194 26.0758 23.1194C26.3709 23.1194 26.6534 23.1728 26.9145 23.2699L29.1308 17.5981L24.0807 13.3826L20.8203 14.4361ZM19.9946 13.0303C20.3243 13.3045 20.5798 13.6649 20.7242 14.0772L23.7446 13.102L21.1881 10.9688L19.9946 13.0303ZM18.466 12.4787C18.9129 12.4787 19.3317 12.6015 19.6906 12.8158L20.8996 10.7273L18.7872 8.96485C18.551 9.10544 18.2747 9.18666 17.9808 9.18666C17.1077 9.18666 16.4001 8.4787 16.4001 7.60598C16.4001 7.49614 16.4111 7.38766 16.4328 7.2842L12.5221 5.25837C12.373 5.55539 12.1786 5.82477 11.9468 6.05702L17.2475 12.8114C17.6045 12.6006 18.0208 12.4787 18.466 12.4787ZM7.92623 19.9188C7.94692 20.047 7.95891 20.1787 7.95891 20.3123C7.95891 20.9425 7.71564 21.5149 7.31864 21.9431L12.5646 25.6846C12.9697 25.3674 13.4803 25.1797 14.0343 25.1797L14.0546 25.1797L12.5528 17.8614L7.92623 19.9188ZM6.33569 18.0446C7.04133 18.2851 7.59923 18.8455 7.83554 19.5535L12.4766 17.4896L11.5616 13.0328L7.89452 11.9535L6.33569 18.0446ZM5.56431 17.9173C5.70431 17.9173 5.84219 17.9303 5.97678 17.9541L7.53832 11.8491L4.54675 10.9688C4.27969 11.5432 3.79102 11.9936 3.19058 12.209L4.83585 18.0312C5.06558 17.9574 5.30982 17.9173 5.56431 17.9173ZM33.1233 14.3143L34.6516 20.7927C34.702 20.7871 34.755 20.7836 34.8084 20.7836C35.5931 20.7836 36.2313 21.4204 36.2313 22.2065C36.2313 22.9922 35.5931 23.6288 34.8084 23.6288C34.2352 23.6288 33.7421 23.2905 33.5168 22.803L28.4248 25.048C28.4549 25.1986 28.4704 25.3551 28.4704 25.5138C28.4704 26.8367 27.3985 27.9084 26.0758 27.9084C25.0555 27.9084 24.1838 27.2699 23.8392 26.3699L16.4229 27.3915C16.4274 27.4515 16.4299 27.5124 16.4299 27.5743C16.4299 28.8966 15.3574 29.9689 14.0343 29.9689C12.7127 29.9689 11.6399 28.8966 11.6399 27.5743C11.6399 26.9431 11.8853 26.3678 12.285 25.9396L7.03978 22.1991C6.63272 22.5178 6.12027 22.7075 5.56431 22.7075C4.24159 22.7075 3.16873 21.6346 3.16873 20.3123C3.16873 19.3762 3.70652 18.5649 4.49067 18.1718L2.83264 12.3059C2.68838 12.3331 2.53928 12.348 2.38671 12.348C1.07308 12.348 0.00756806 11.2821 0.00756809 9.96791C0.00756813 8.6539 1.07308 7.58858 2.38671 7.58858C3.13354 7.58858 3.79837 7.93221 4.23521 8.46884L7.27397 5.71629C6.8932 5.2019 6.66695 4.56626 6.66695 3.87667C6.66695 2.16972 8.05077 0.786095 9.75772 0.786095C11.2475 0.786096 12.49 1.8402 12.7826 3.24355L23.7367 2.40738L23.7357 2.35942C23.7357 1.07829 24.7747 0.0377201 26.0574 0.0377201C27.3397 0.0377201 28.3787 1.07829 28.3787 2.35942C28.3787 3.10645 28.0262 3.77032 27.4791 4.19459L30.5995 8.35649C31.0847 8.07029 31.6521 7.90591 32.256 7.90591C34.0575 7.90591 35.5189 9.36631 35.5189 11.1688C35.5189 12.6704 34.504 13.9347 33.1233 14.3143Z" fill="white"/>
</mask>
<g mask="url(#mask1_200_733)">
<path d="M2.75075 39.5523L44.1498 27.702L33.4879 -9.54602L-7.91138 2.30423L2.75075 39.5523Z" fill="url(#paint0_linear_200_733)"/>
</g>
</g>
<defs>
<linearGradient id="paint0_linear_200_733" x1="18.1192" y1="-9.54602" x2="18.1192" y2="39.5523" gradientUnits="userSpaceOnUse">
<stop offset="0.265" stop-color="#99FC7C"/>
<stop offset="1" stop-color="#30F0AA"/>
</linearGradient>
</defs>
</svg>
