<svg width="31" height="31" viewBox="0 0 31 31" fill="none" xmlns="http://www.w3.org/2000/svg">
<g clip-path="url(#clip0_200_744)">
<path fill-rule="evenodd" clip-rule="evenodd" d="M21.8354 16.4006L15.2729 16.4006C14.7545 16.4006 14.3354 15.9815 14.3354 15.4631L14.3354 7.96307C14.3354 7.44464 14.7545 7.02557 15.2729 7.02557C15.7914 7.02557 16.2104 7.44464 16.2104 7.96307L16.2104 14.5256L21.8354 14.5256C22.3539 14.5256 22.7729 14.9456 22.7729 15.4631C22.7729 15.9815 22.3539 16.4006 21.8354 16.4006ZM28.3979 15.4631C28.3979 8.21526 22.5217 2.33807 15.2729 2.33807C8.0242 2.33807 2.14795 8.21526 2.14795 15.4631C2.14795 20.4346 4.91263 24.7584 8.98794 26.9859L5.89795 30.4631L8.71045 30.4631L11.2276 27.9459C12.5026 28.3593 13.8601 28.5881 15.2729 28.5881C16.6858 28.5881 18.0433 28.3593 19.3183 27.9459L21.8354 30.4631L24.6479 30.4631L21.5589 26.9859C25.6332 24.7584 28.3979 20.4346 28.3979 15.4631ZM25.5854 0.463074L23.7104 0.463074L23.7104 2.33807L25.5854 2.33807C27.1389 2.33807 28.3979 3.59714 28.3979 5.15057L28.3979 7.02557L30.2729 7.02557L30.2729 5.15057C30.2729 2.5612 28.1748 0.463074 25.5854 0.463074ZM2.14795 5.15057C2.14795 3.59714 3.40701 2.33807 4.96045 2.33807L6.83545 2.33807L6.83545 0.463074L4.96045 0.463074C2.37107 0.463074 0.272949 2.5612 0.272949 5.15057L0.272949 7.02557L2.14795 7.02557L2.14795 5.15057Z" fill="url(#paint0_linear_200_744)"/>
</g>
<defs>
<linearGradient id="paint0_linear_200_744" x1="15.2729" y1="0.463074" x2="15.2729" y2="30.4631" gradientUnits="userSpaceOnUse">
<stop stop-color="#30F0AA"/>
<stop offset="1" stop-color="#99FC7C"/>
</linearGradient>
<clipPath id="clip0_200_744">
<rect width="30" height="30" fill="white" transform="translate(0.272949 0.463074)"/>
</clipPath>
</defs>
</svg>
