<svg width="38" height="56" viewBox="0 0 38 56" fill="none" xmlns="http://www.w3.org/2000/svg">
<path d="M28.1223 3.91449L28.1645 10.428Z" fill="#F99417"/>
<path d="M28.1641 10.428L28.1984 14.2973Z" fill="#F99417"/>
<path d="M28.1984 14.2973C28.2249 15.5214 28.1612 16.7249 28.0073 17.9059Z" fill="#F99417"/>
<path d="M28.0075 17.9059C27.6448 20.655 26.4531 23.1796 24.4802 25.1025C22.7053 26.8323 20.6275 28.0535 18.247 28.765C17.164 29.0884 16.0516 29.256 14.9118 29.2678C14.899 29.2678 14.8922 29.2747 14.8922 29.2874V29.2884C14.8912 29.3021 14.8981 29.309 14.9118 29.309C15.6253 29.3403 16.3642 29.3325 17.0875 29.2109C17.9804 29.061 18.7693 28.8699 19.4524 28.6376C20.7432 28.1995 22.0653 27.5301 23.4198 26.6294C26.2404 24.7536 28.7425 22.2172 31.1427 19.7474C31.2025 19.6857 31.2358 19.6033 31.2358 19.5181L31.2427 15.9487" fill="#F99417"/>
<path d="M31.2424 15.9486L31.2601 12.8398Z" fill="#F99417"/>
<path d="M31.26 12.8399L31.2835 8.57074Z" fill="#F99417"/>
<path d="M31.2834 8.57074L31.307 0.582214Z" fill="#F99417"/>
<path d="M31.3071 0.582184L31.3081 0.0715668C31.3081 0.0343242 31.2787 0.00492286 31.2415 0.00492286C30.2487 0.00884313 29.2127 0.00688419 28.1337 2.37192e-05C28.0572 -0.000956349 27.9955 0.0284462 27.9494 0.0862702C27.1938 1.03694 26.4989 1.99838 25.8648 2.97061C25.8452 3.00197 25.8668 3.04215 25.904 3.04215L28.0366 3.03921C28.0778 3.03921 28.1111 3.07254 28.1121 3.1137L28.1219 3.91441" fill="#F99417"/>
<path d="M31.3075 0.582214C31.2909 0.820371 31.2762 1.05657 31.2634 1.29178C31.2615 1.32805 31.2497 1.36333 31.2272 1.39665C31.2007 1.43487 31.1693 1.45937 31.1321 1.47211C31.1056 1.48094 31.0821 1.49368 31.0615 1.51034C30.9331 1.61227 30.843 1.72105 30.7891 1.8367C30.7381 1.94549 30.6725 2.03761 30.5921 2.11308C30.2775 2.41004 29.9511 2.80207 29.5807 3.01768C29.4493 3.09413 29.316 3.16959 29.1818 3.2431C29.0975 3.28916 29.0289 3.34306 28.9769 3.40481C28.8672 3.53614 28.7682 3.64003 28.6074 3.71451C28.5349 3.74783 28.4702 3.79194 28.4124 3.84682C28.3977 3.86152 28.3801 3.86446 28.3615 3.85564C28.3526 3.85074 28.3458 3.84584 28.3409 3.83898C28.3154 3.80664 28.2879 3.80369 28.2585 3.83212C28.2419 3.84878 28.2321 3.8674 28.2291 3.88896C28.2242 3.9262 28.2037 3.93895 28.1674 3.92816L28.1223 3.91445" fill="#F99417"/>
<path d="M31.2836 8.57066C31.2719 8.52362 31.2513 8.5001 31.2209 8.50108C31.2111 8.50206 31.2052 8.50696 31.2042 8.51578C31.2033 8.5246 31.2003 8.53244 31.1964 8.54028C31.1621 8.61477 31.1484 8.61085 31.1572 8.5295C31.1582 8.51872 31.1533 8.50892 31.1425 8.50206C31.1219 8.48834 31.1013 8.48932 31.0817 8.50598L30.8308 8.71082C30.8083 8.72846 30.7838 8.73924 30.7554 8.74218C30.674 8.751 30.6015 8.78432 30.5378 8.84116C30.3614 9.00092 30.182 9.15577 30.0007 9.30376C29.8998 9.3851 29.7822 9.46253 29.6479 9.53505C29.5273 9.60072 29.4166 9.67422 29.3137 9.75655C29.1755 9.86632 29.0187 9.97706 28.8432 10.0888C28.8364 10.0937 28.8286 10.0976 28.8217 10.1025C28.6404 10.2142 28.4218 10.323 28.1641 10.4279" fill="#F99417"/>
<path d="M31.2602 12.8398C31.1387 12.8996 31.0132 12.9496 30.8848 12.9908C30.7427 13.0368 30.6202 13.0907 30.5183 13.1525C30.2556 13.3142 29.9891 13.4622 29.7186 13.5984C29.6892 13.6131 29.6647 13.6337 29.6441 13.6592C29.6157 13.6954 29.5794 13.7288 29.5373 13.7572C29.1491 14.0208 28.7591 14.2551 28.3671 14.4609C28.3132 14.4893 28.2573 14.4344 28.1985 14.2972" fill="#F99417"/>
<path d="M31.2425 15.9487C31.1965 16.0143 31.169 16.0957 31.1612 16.1937C31.1582 16.226 31.1406 16.2466 31.1092 16.2554C30.9024 16.3133 30.7427 16.375 30.628 16.4407C30.3663 16.5906 30.1135 16.7435 29.8391 16.8631C29.6382 16.9503 29.4559 17.0728 29.2912 17.2306C29.2187 17.3002 29.1383 17.3629 29.0491 17.4178C28.9649 17.4707 28.8815 17.5227 28.7982 17.5726C28.6944 17.6344 28.6012 17.7099 28.5189 17.7981C28.4346 17.8882 28.3337 17.9568 28.2171 18.0029C28.1984 18.0098 28.1896 18.0235 28.1926 18.0441C28.1935 18.0548 28.1906 18.0627 28.1828 18.0695C28.1543 18.0931 28.1416 18.0862 28.1436 18.0499C28.1455 18.0215 28.1426 17.9941 28.1338 17.9676C28.1259 17.9402 28.1151 17.9382 28.1004 17.9627C28.0955 17.9706 28.0887 17.9755 28.0789 17.9774C28.0671 17.9804 28.0573 17.9764 28.0504 17.9666L28.0073 17.9059" fill="#F99417"/>
<path d="M14.501 0.0255737L14.8235 0.132401C14.9254 0.165723 14.9646 0.289213 14.9009 0.375459C14.8705 0.417602 14.8186 0.461704 14.747 0.509727C14.7186 0.528349 14.7059 0.555791 14.7108 0.590094L14.7392 0.789047C14.7441 0.82727 14.7588 0.83119 14.7833 0.800808C14.8195 0.754745 14.8578 0.710643 14.898 0.66752C14.9038 0.660659 14.9097 0.660658 14.9166 0.665558V0.666539C14.9293 0.67634 14.9303 0.687121 14.9185 0.697902C14.7774 0.836091 14.6177 0.9586 14.4383 1.06543C14.3217 1.13501 14.2119 1.21636 14.109 1.30946C14.012 1.39669 13.9081 1.48294 13.7973 1.5682C13.7415 1.61133 13.7287 1.60054 13.7601 1.53684C13.766 1.5241 13.7699 1.51234 13.7709 1.4996C13.7719 1.48784 13.7591 1.47999 13.7493 1.48686L13.0888 1.90731C13.075 1.91613 13.0643 1.92691 13.0554 1.94063C13.0466 1.95533 13.0339 1.96513 13.0182 1.97199C12.8232 2.0553 12.6183 2.19936 12.5478 2.39636C12.5331 2.4385 12.5017 2.463 12.4556 2.46986C12.4203 2.47476 12.39 2.49045 12.3645 2.51691L12.2224 2.66784C12.2106 2.68058 12.1939 2.68646 12.1773 2.68352C12.1626 2.68156 12.1489 2.68352 12.1361 2.69038C12.1293 2.69332 12.1253 2.69724 12.1224 2.7041C12.1195 2.71292 12.1175 2.72272 12.1175 2.73154C12.1165 2.7531 12.1048 2.76487 12.0832 2.76585C11.4442 2.79427 10.8052 2.81583 10.1672 2.83053C10.03 2.83347 9.92901 2.89815 9.79572 2.90011C9.57227 2.90501 9.34195 2.90501 9.1038 2.90207C9.09497 2.90207 9.08615 2.90403 9.07929 2.90893C9.07145 2.91383 9.06361 2.91874 9.05675 2.92462C9.04695 2.93246 9.03617 2.93638 9.02441 2.93638L5.14726 2.92363C5.11296 2.92363 5.10806 2.9354 5.13158 2.9599C5.15314 2.98244 5.17666 2.98734 5.20312 2.9746C5.21586 2.96774 5.21489 2.9648 5.20116 2.96578L3.1881 3.03046C3.13812 3.01184 3.09892 3.01674 3.0705 3.04418C3.05188 3.06183 3.04207 3.08339 3.04207 3.10985C3.04109 5.01706 3.04012 6.96544 3.03718 8.95497C3.0362 9.07846 3.02639 9.20097 3.00581 9.32348C2.98719 9.44011 2.94015 9.53321 2.86566 9.60476C1.95224 10.4839 1.01725 11.3963 0.0616883 12.344C0.0313062 12.3744 0.015625 12.3685 0.015625 12.3244L0.0607073 0.0637978C0.0607073 0.038316 0.0734496 0.0255737 0.0989314 0.0255737H14.501Z" fill="#363062"/>
<path d="M14.5009 0.0256348L26.6028 0.035436C26.6332 0.035436 26.6508 0.07072 26.6312 0.0952217C25.8903 1.03119 25.0876 1.97891 24.2242 2.93938C24.1801 2.98838 24.1242 3.01778 24.0546 3.0266C23.9831 3.03641 23.9086 3.04131 23.8331 3.04131C17.8292 3.05895 11.693 3.06091 5.42352 3.0462C4.69827 3.04424 3.93382 3.01484 3.18799 3.03052L5.20105 2.96584C5.21477 2.96486 5.21575 2.9678 5.20301 2.97466C5.17655 2.9874 5.15303 2.9825 5.13146 2.95996C5.10794 2.93546 5.11284 2.9237 5.14715 2.9237L9.02429 2.93644C9.03606 2.93644 9.04683 2.93252 9.05664 2.92468C9.0635 2.9188 9.07134 2.9139 9.07918 2.909C9.08604 2.9041 9.09486 2.90213 9.10368 2.90213C9.34184 2.90507 9.57215 2.90508 9.79561 2.90018C9.9289 2.89822 10.0298 2.83353 10.1671 2.83059C10.8051 2.81589 11.4441 2.79433 12.0831 2.76591C12.1046 2.76493 12.1164 2.75316 12.1174 2.7316C12.1174 2.72278 12.1193 2.71298 12.1223 2.70416C12.1252 2.6973 12.1291 2.69338 12.136 2.69044C12.1488 2.68358 12.1625 2.68162 12.1772 2.68358C12.1938 2.68652 12.2105 2.68064 12.2223 2.6679L12.3644 2.51697C12.3898 2.49051 12.4202 2.47482 12.4555 2.46992C12.5016 2.46306 12.5329 2.43856 12.5476 2.39642C12.6182 2.19943 12.823 2.05536 13.0181 1.97205C13.0338 1.96519 13.0465 1.95539 13.0553 1.94069C13.0641 1.92697 13.0749 1.91619 13.0886 1.90737L13.7492 1.48692C13.759 1.48006 13.7717 1.4879 13.7708 1.49966C13.7698 1.5124 13.7659 1.52416 13.76 1.5369C13.7286 1.6006 13.7414 1.61139 13.7972 1.56826C13.908 1.483 14.0119 1.39675 14.1089 1.30952C14.2118 1.21642 14.3216 1.13507 14.4382 1.06549C14.6175 0.958661 14.7773 0.836152 14.9184 0.697963C14.9302 0.687182 14.9292 0.676401 14.9165 0.6666V0.665619C14.9096 0.660719 14.9037 0.66072 14.8978 0.667581C14.8577 0.710704 14.8194 0.754806 14.7832 0.800869C14.7587 0.831251 14.744 0.827331 14.7391 0.789108L14.7106 0.590155C14.7057 0.555852 14.7185 0.52841 14.7469 0.509788C14.8185 0.461765 14.8704 0.417663 14.9008 0.37552C14.9645 0.289274 14.9253 0.165784 14.8234 0.132462L14.5009 0.0256348Z" fill="#363062"/>
<path d="M24.9593 5.76686L23.9675 6.46271C23.8842 6.52151 23.8508 6.49995 23.8675 6.399L24.0498 5.31897C24.0625 5.24644 24.0419 5.18372 23.99 5.13178C23.7264 4.86814 23.4392 4.61528 23.1285 4.37124C23.0707 4.32616 23.0785 4.30362 23.152 4.3046L24.0939 4.3193C24.1694 4.32028 24.2291 4.2899 24.2732 4.22815L24.9995 3.21672C25.0553 3.14028 25.1043 3.14322 25.1484 3.22652L25.6796 4.22913C25.7051 4.27716 25.7561 4.30754 25.811 4.30754L26.8763 4.3095C26.9498 4.31048 26.9596 4.33596 26.9077 4.38692C26.6215 4.66428 26.3422 4.97301 26.0687 5.31407C26.0472 5.34151 26.0413 5.37875 26.055 5.4111L26.3882 6.24611C26.4167 6.3157 26.3931 6.34314 26.3196 6.3304C26.2089 6.3108 26.0893 6.27943 25.9923 6.22161C25.6914 6.0452 25.3866 5.88937 25.0779 5.75412C25.0357 5.73648 24.9965 5.7404 24.9593 5.76686Z" fill="#B8C6C5"/>
<path d="M6.2242 4.99648L6.83282 5.02294C6.8681 5.0249 6.88476 5.06704 6.86026 5.09253C6.69659 5.26404 6.4947 5.3395 6.25458 5.31696C6.14383 5.30618 6.08797 5.35714 6.08601 5.46789L6.07915 5.94519C6.07719 6.05593 6.037 6.07259 5.95958 5.99321C5.81551 5.84522 5.71162 5.65508 5.64792 5.42281C5.64302 5.40713 5.6293 5.39635 5.61264 5.39537L4.98441 5.37674C4.94325 5.37576 4.91875 5.35518 4.90993 5.315C4.88641 5.21013 4.96579 5.12389 5.06478 5.10527C5.20395 5.0788 5.34018 5.03764 5.47347 4.9808C5.50483 4.96708 5.52737 4.94453 5.54207 4.91415C5.63518 4.7103 5.76259 4.52898 5.9243 4.37119C6.04093 4.25849 6.10071 4.28299 6.10365 4.4447C6.10659 4.59759 6.12521 4.76322 6.15951 4.94062C6.16637 4.97688 6.18794 4.9955 6.2242 4.99648Z" fill="#B8C6C5"/>
<path d="M19.9442 6.88017C19.8491 7.09382 19.7276 7.23299 19.5796 7.2967C16.7041 6.13532 13.8864 6.21961 11.1265 7.55152C10.165 8.01607 9.27024 8.66978 8.44208 9.51263C6.26241 11.7325 5.33723 14.4306 5.40975 17.5178C5.44798 19.1516 5.81256 20.6795 6.50351 22.0996C6.50841 22.1094 6.50645 22.1173 6.49665 22.1222H6.49567C6.48489 22.1281 6.47607 22.1251 6.46921 22.1143C5.75964 20.8932 5.30391 19.5544 5.16082 18.1627C4.90404 15.6714 5.30391 13.2232 6.62896 11.1297C7.75408 9.3519 9.27122 8.01215 11.1804 7.11147C13.0366 6.23627 15.0027 5.9099 17.0775 6.13434C18.0958 6.24509 19.0513 6.49304 19.9442 6.88017Z" fill="#F5F5F5"/>
<path d="M19.9442 6.88019C22.558 7.9857 24.6024 10.2173 25.3806 12.938C25.7815 14.3424 25.902 15.7322 25.7403 17.1082C25.5825 18.444 25.213 19.8053 24.5632 21.0196C24.5505 21.0441 24.5329 21.0647 24.5103 21.0814C24.4682 21.1117 24.4564 21.1029 24.476 21.0549C25.2728 19.0958 25.5502 17.1082 25.3061 15.0922C24.9229 11.9285 23.393 9.52833 20.7165 7.89162C20.3774 7.68384 19.9589 7.49469 19.5796 7.29672C19.7276 7.23301 19.8491 7.09384 19.9442 6.88019Z" fill="#F5F5F5"/>
<path d="M17.3793 12.2979C17.3754 12.3048 17.3715 12.3107 17.3685 12.3166C17.3626 12.3303 17.3528 12.3371 17.3391 12.3371C17.3352 12.3371 17.3323 12.3362 17.3293 12.3342C17.3156 12.3234 17.3048 12.3273 17.297 12.344C17.2666 12.4136 17.2166 12.4616 17.147 12.489C17.1157 12.5018 17.0882 12.5194 17.0647 12.5439L16.1924 13.4289C16.1797 13.4417 16.1621 13.4476 16.1444 13.4466C16.1238 13.4446 16.1072 13.4505 16.0944 13.4632C15.8092 13.7514 15.5378 13.9915 15.281 14.1826C15.1585 14.2747 15.0399 14.3776 14.9233 14.4903C14.8184 14.5923 14.7057 14.6775 14.5851 14.7461C14.3823 14.8628 14.1696 15.0166 13.9491 15.2097C13.7501 15.3832 13.5521 15.5331 13.3561 15.6605C13.314 15.687 13.262 15.688 13.2258 15.7174C13.0523 15.8556 12.8671 15.9918 12.6701 16.1241C12.5544 16.2015 12.4594 16.1643 12.3447 16.2153C12.1938 16.2819 12.0634 16.3701 11.9546 16.4789L10.6707 14.7716C10.6374 14.7275 10.6286 14.6697 10.6462 14.6168C10.8393 14.0552 11.0422 13.4397 11.2549 12.7703C11.347 12.4822 11.7282 12.3499 11.9683 12.245C12.7387 11.9088 13.4561 11.6305 14.1206 11.408C14.6851 11.2189 15.3055 11.1052 15.9807 11.066C16.0278 11.063 16.065 11.0278 16.0709 10.9817C16.1091 10.6455 16.1552 10.3074 16.2111 9.96733C16.2395 9.79092 16.3395 9.72133 16.509 9.7576C16.5492 9.76544 16.5874 9.73702 16.5903 9.69585C16.5952 9.63411 16.5678 9.58119 16.508 9.53708C15.7936 9.00589 15.0889 8.40118 14.394 7.72199C14.3685 7.69749 14.3382 7.68867 14.3029 7.69749C12.6417 8.09834 11.2078 8.72363 10.0014 9.57138C9.91021 9.63509 9.78672 9.63901 9.68675 9.58021C9.67793 9.5753 9.67009 9.56942 9.66323 9.56256C9.61128 9.51258 9.61128 9.46259 9.66519 9.41261C10.3081 8.81085 11.052 8.33356 11.8958 7.97975C14.148 7.03693 16.5962 6.99675 18.8925 7.81216C19.9265 8.17969 20.6958 8.71775 21.132 9.77916C21.1437 9.80856 21.1212 9.83992 21.0898 9.83894C19.558 9.79778 18.1026 9.79778 16.7236 9.83796C16.6825 9.83894 16.6541 9.87912 16.6668 9.91833C16.7913 10.2917 16.753 10.6642 16.5502 11.0346C16.5149 11.0993 16.5208 11.1787 16.5658 11.2375L17.3793 12.2979Z" fill="#B8C6C5"/>
<path d="M25.3203 7.90424L25.3271 7.59846C25.33 7.4838 25.3702 7.46909 25.4467 7.55534C25.7309 7.87582 25.8828 8.08066 26.3121 8.21983C26.4767 8.27373 26.4787 8.33155 26.317 8.39428C26.0043 8.51679 25.7917 8.74514 25.6799 9.08033C25.6319 9.2244 25.5809 9.22636 25.5251 9.08425C25.4016 8.76573 25.1497 8.52365 24.7685 8.35998C24.6126 8.29235 24.6175 8.24237 24.7842 8.20904C24.9635 8.17278 25.1272 8.10026 25.2752 7.99147C25.3046 7.96991 25.3193 7.94051 25.3203 7.90424Z" fill="#B8C6C5"/>
<path d="M23.1666 15.3107C23.297 15.0334 23.3763 14.7619 23.4028 14.4943C23.4528 14.0053 23.5204 13.529 23.6067 13.0644C23.6351 12.9154 23.6096 12.7763 23.5302 12.6479C22.801 11.463 21.9004 10.431 21.1761 9.19217C21.1418 9.13239 21.1535 9.12063 21.2124 9.15689C21.5534 9.36172 21.8974 9.66652 22.2434 10.0713C22.8628 10.7946 23.3107 11.4993 23.5861 12.1863C23.7948 12.7067 23.982 13.3016 24.1457 13.971C24.6583 16.0664 24.5015 18.6106 23.5959 20.6335C23.5871 20.6541 23.5714 20.6668 23.5508 20.6717C23.5145 20.6825 23.4998 20.6688 23.5087 20.6305C23.6312 20.1082 23.687 19.6132 23.6772 19.1438C23.6762 19.1095 23.6919 19.0869 23.7243 19.0742C23.8811 19.0115 23.9428 18.889 23.9095 18.7067C23.8419 18.3421 23.7772 17.9697 23.7135 17.5904C23.5871 16.8347 23.4048 16.0869 23.1646 15.347C23.1607 15.3352 23.1607 15.3215 23.1666 15.3107Z" fill="#B8C6C5"/>
<path d="M11.0177 12.0784C11.0912 12.2303 11.1804 12.3656 11.1177 12.542C10.9031 13.1487 10.6884 13.773 10.4738 14.4169C10.4552 14.4717 10.413 14.5168 10.3591 14.5384C9.67993 14.8138 8.99781 15.1166 8.31078 15.4479C7.90209 15.6449 7.49242 15.8046 7.07981 15.9271C6.99651 15.9516 6.90634 15.9232 6.85244 15.8556L6.50451 15.4156C6.48491 15.391 6.47609 15.3636 6.47805 15.3322C6.48099 15.2793 6.48589 15.2264 6.49373 15.1735C6.72013 13.6593 7.26799 12.3166 8.13829 11.1444C8.48425 10.6769 8.89294 10.2016 9.36239 9.71646C9.39669 9.6802 9.43884 9.66844 9.48686 9.68118C9.68385 9.73214 9.89065 9.7978 9.98964 9.9948C10.3689 10.7514 10.7119 11.4463 11.0177 12.0784Z" fill="#B8C6C5"/>
<path d="M17.3795 12.298L19.0103 14.7031C19.0417 14.7492 19.0427 14.809 19.0123 14.856C18.7036 15.3304 18.4311 15.8498 18.1949 16.4153C18.1332 16.5643 17.9862 16.629 17.8401 16.6721C16.5778 17.0474 15.3272 17.313 14.0894 17.4699C13.6651 17.5238 13.1995 17.5453 12.6909 17.5355C12.6556 17.5345 12.6281 17.5198 12.6095 17.4904L11.9548 16.479C12.0636 16.3702 12.194 16.282 12.3449 16.2154C12.4596 16.1644 12.5546 16.2016 12.6703 16.1242C12.8673 15.9919 13.0525 15.8557 13.226 15.7175C13.2622 15.6881 13.3142 15.6871 13.3563 15.6606C13.5523 15.5332 13.7503 15.3833 13.9493 15.2098C14.1698 15.0167 14.3825 14.8629 14.5853 14.7462C14.7059 14.6776 14.8186 14.5924 14.9235 14.4904C15.0401 14.3777 15.1587 14.2748 15.2812 14.1827C15.538 13.9916 15.8094 13.7515 16.0946 13.4633C16.1074 13.4506 16.124 13.4447 16.1446 13.4467C16.1623 13.4477 16.1799 13.4418 16.1926 13.429L17.0649 12.544C17.0884 12.5195 17.1159 12.5019 17.1472 12.4891C17.2168 12.4617 17.2668 12.4137 17.2972 12.3441C17.305 12.3274 17.3158 12.3235 17.3295 12.3343C17.3325 12.3363 17.3354 12.3372 17.3393 12.3372C17.353 12.3372 17.3628 12.3304 17.3687 12.3167C17.3717 12.3108 17.3756 12.3049 17.3795 12.298Z" fill="#B8C6C5"/>
<path d="M23.3824 16.769C23.5382 17.458 23.6402 18.0588 23.6882 18.5704C23.7117 18.8311 23.6637 19.13 23.4608 19.3162C22.6552 20.0542 21.8574 20.7481 21.0675 21.3989C20.9832 21.4684 20.8695 21.489 20.7666 21.4547L19.8189 21.1401C19.7336 21.1117 19.6777 21.0284 19.6856 20.9382C19.7189 20.555 19.6924 20.1787 19.6062 19.8082C19.3445 18.69 18.9956 17.6815 18.5575 16.7837C18.4674 16.5995 18.4693 16.4035 18.5644 16.1947C18.7163 15.8605 18.8819 15.5596 19.0593 15.2921C19.1064 15.2225 19.1799 15.1754 19.2632 15.1637C19.4994 15.1313 19.7434 15.1166 19.9963 15.1196C20.8852 15.1303 21.7937 15.1823 22.7218 15.2774C22.8296 15.2881 22.9571 15.3264 22.9982 15.4391C23.1384 15.8193 23.2668 16.2623 23.3824 16.769Z" fill="#B8C6C5"/>
<path d="M6.8525 18.6899C6.81722 18.7272 6.76136 18.7389 6.68589 18.7242C6.45264 17.6805 6.37031 16.6338 6.43892 15.5841C6.44382 15.5086 6.4644 15.5047 6.50066 15.5704C6.62219 15.7929 6.72999 16.0006 6.82408 16.1947C6.92699 16.4083 6.85936 16.7602 6.86426 17.0111C6.87309 17.4854 6.89073 17.9402 6.91523 18.3753C6.92111 18.4743 6.90053 18.5792 6.8525 18.6899Z" fill="#B8C6C5"/>
<path d="M31.3074 0.582184C31.2907 0.820341 31.276 1.05654 31.2633 1.29175C31.2613 1.32801 31.2495 1.3633 31.227 1.39662C31.2005 1.43484 31.1692 1.45934 31.1319 1.47208C31.1055 1.4809 31.082 1.49365 31.0614 1.51031C30.933 1.61224 30.8428 1.72102 30.7889 1.83667C30.738 1.94546 30.6723 2.03758 30.5919 2.11305C30.2773 2.41001 29.951 2.80204 29.5805 3.01765C29.4492 3.0941 29.3159 3.16956 29.1816 3.24307C29.0973 3.28913 29.0287 3.34303 28.9768 3.40478C28.867 3.53611 28.768 3.63999 28.6073 3.71448C28.5348 3.7478 28.4701 3.79191 28.4123 3.84679C28.3976 3.86149 28.3799 3.86443 28.3613 3.85561C28.3525 3.85071 28.3456 3.84581 28.3407 3.83895C28.3152 3.8066 28.2878 3.80366 28.2584 3.83209C28.2417 3.84875 28.2319 3.86737 28.229 3.88893C28.2241 3.92617 28.2035 3.93891 28.1672 3.92813L28.1221 3.91441L28.1124 3.1137C28.1114 3.07253 28.078 3.03921 28.0369 3.03921L25.9043 3.04215C25.867 3.04215 25.8455 3.00197 25.8651 2.97061C26.4992 1.99838 27.194 1.03694 27.9497 0.0862702C27.9957 0.0284462 28.0575 -0.000956349 28.1339 2.37192e-05C29.213 0.00688419 30.2489 0.00884313 31.2417 0.00492286C31.2789 0.00492286 31.3084 0.0343242 31.3084 0.0715667L31.3074 0.582184Z" fill="#F99417"/>
<path d="M31.3075 0.582214L31.284 8.57074C31.2723 8.5237 31.2517 8.50018 31.2213 8.50116C31.2115 8.50214 31.2056 8.50704 31.2046 8.51586C31.2036 8.52468 31.2007 8.53252 31.1968 8.54036C31.1625 8.61485 31.1488 8.61093 31.1576 8.52958C31.1586 8.5188 31.1537 8.509 31.1429 8.50214C31.1223 8.48842 31.1017 8.4894 31.0821 8.50606L30.8312 8.7109C30.8087 8.72854 30.7842 8.73932 30.7558 8.74226C30.6744 8.75108 30.6019 8.7844 30.5382 8.84124C30.3618 9.00099 30.1824 9.15585 30.0011 9.30384C29.9002 9.38518 29.7825 9.46261 29.6483 9.53513C29.5277 9.60079 29.417 9.6743 29.3141 9.75663C29.1759 9.86639 29.0191 9.97714 28.8436 10.0889C28.8368 10.0938 28.8289 10.0977 28.8221 10.1026C28.6408 10.2143 28.4222 10.3231 28.1645 10.428L28.1223 3.91444L28.1674 3.92816C28.2037 3.93894 28.2242 3.9262 28.2291 3.88896C28.2321 3.8674 28.2419 3.84878 28.2585 3.83212C28.2879 3.80369 28.3154 3.80664 28.3409 3.83898C28.3458 3.84584 28.3526 3.85074 28.3615 3.85564C28.3801 3.86446 28.3977 3.86152 28.4124 3.84682C28.4702 3.79194 28.5349 3.74783 28.6074 3.71451C28.7682 3.64002 28.8672 3.53614 28.9769 3.40481C29.0289 3.34306 29.0975 3.28916 29.1818 3.2431C29.316 3.16959 29.4493 3.09413 29.5807 3.01768C29.9511 2.80207 30.2775 2.41004 30.5921 2.11308C30.6725 2.03761 30.7381 1.94549 30.7891 1.8367C30.843 1.72105 30.9331 1.61227 31.0615 1.51034C31.0821 1.49368 31.1056 1.48094 31.1321 1.47211C31.1693 1.45937 31.2007 1.43487 31.2272 1.39665C31.2497 1.36333 31.2615 1.32804 31.2634 1.29178C31.2762 1.05657 31.2909 0.820371 31.3075 0.582214Z" fill="#F99417"/>
<path d="M31.2839 8.57066L31.2603 12.8398C31.1388 12.8996 31.0134 12.9496 30.885 12.9908C30.7429 13.0368 30.6204 13.0907 30.5184 13.1525C30.2558 13.3142 29.9892 13.4622 29.7187 13.5984C29.6893 13.6131 29.6648 13.6337 29.6442 13.6592C29.6158 13.6954 29.5795 13.7288 29.5374 13.7572C29.1493 14.0208 28.7592 14.2551 28.3672 14.4609C28.3133 14.4893 28.2574 14.4344 28.1986 14.2972L28.1643 10.4279C28.4221 10.323 28.6406 10.2142 28.8219 10.1025C28.8288 10.0976 28.8366 10.0937 28.8435 10.0888C29.0189 9.97706 29.1757 9.86632 29.3139 9.75655C29.4168 9.67422 29.5276 9.60072 29.6481 9.53505C29.7824 9.46253 29.9 9.3851 30.001 9.30376C30.1823 9.15577 30.3616 9.00092 30.538 8.84116C30.6017 8.78432 30.6743 8.751 30.7556 8.74218C30.784 8.73924 30.8085 8.72846 30.8311 8.71082L31.082 8.50598C31.1016 8.48932 31.1222 8.48834 31.1427 8.50206C31.1535 8.50892 31.1584 8.51872 31.1574 8.5295C31.1486 8.61085 31.1623 8.61477 31.1966 8.54028C31.2006 8.53244 31.2035 8.5246 31.2045 8.51578C31.2055 8.50696 31.2113 8.50206 31.2211 8.50108C31.2515 8.5001 31.2721 8.52362 31.2839 8.57066Z" fill="#F99417"/>
<path d="M31.2604 12.8398L31.2428 15.9486C31.1967 16.0143 31.1693 16.0956 31.1614 16.1936C31.1585 16.226 31.1408 16.2466 31.1095 16.2554C30.9027 16.3132 30.7429 16.375 30.6283 16.4406C30.3666 16.5906 30.1137 16.7435 29.8393 16.863C29.6384 16.9503 29.4561 17.0728 29.2915 17.2305C29.2189 17.3001 29.1386 17.3629 29.0494 17.4177C28.9651 17.4707 28.8818 17.5226 28.7985 17.5726C28.6946 17.6343 28.6015 17.7098 28.5192 17.798C28.4349 17.8882 28.3339 17.9568 28.2173 18.0028C28.1987 18.0097 28.1899 18.0234 28.1928 18.044C28.1938 18.0548 28.1908 18.0626 28.183 18.0695C28.1546 18.093 28.1418 18.0861 28.1438 18.0499C28.1458 18.0215 28.1428 17.994 28.134 17.9676C28.1262 17.9401 28.1154 17.9382 28.1007 17.9627C28.0958 17.9705 28.0889 17.9754 28.0791 17.9774C28.0674 17.9803 28.0576 17.9764 28.0507 17.9666L28.0076 17.9058C28.1614 16.7248 28.2251 15.5213 28.1987 14.2972C28.2575 14.4344 28.3133 14.4893 28.3673 14.4609C28.7593 14.2551 29.1493 14.0208 29.5375 13.7572C29.5796 13.7288 29.6159 13.6954 29.6443 13.6592C29.6649 13.6337 29.6894 13.6131 29.7188 13.5984C29.9893 13.4622 30.2558 13.3142 30.5185 13.1525C30.6204 13.0907 30.7429 13.0368 30.885 12.9908C31.0134 12.9496 31.1389 12.8996 31.2604 12.8398Z" fill="#F99417"/>
<path d="M31.2427 15.9487L31.2358 19.5181C31.2358 19.6033 31.2025 19.6857 31.1427 19.7474C28.7425 22.2172 26.2404 24.7536 23.4198 26.6294C22.0653 27.5301 20.7432 28.1995 19.4524 28.6376C18.7693 28.8699 17.9804 29.061 17.0875 29.2109C16.3642 29.3325 15.6253 29.3403 14.9118 29.309C14.8981 29.309 14.8912 29.3021 14.8922 29.2884V29.2874C14.8922 29.2747 14.899 29.2678 14.9118 29.2678C16.0516 29.256 17.164 29.0884 18.247 28.765C20.6275 28.0535 22.7053 26.8323 24.4802 25.1025C26.4531 23.1796 27.6448 20.655 28.0075 17.9059L28.0506 17.9666C28.0574 17.9764 28.0672 17.9804 28.079 17.9774C28.0888 17.9755 28.0957 17.9706 28.1006 17.9627C28.1153 17.9382 28.126 17.9402 28.1339 17.9676C28.1427 17.9941 28.1456 18.0215 28.1437 18.0499C28.1417 18.0862 28.1545 18.0931 28.1829 18.0695C28.1907 18.0627 28.1937 18.0548 28.1927 18.0441C28.1897 18.0235 28.1986 18.0098 28.2172 18.0029C28.3338 17.9568 28.4348 17.8882 28.519 17.7981C28.6014 17.7099 28.6945 17.6344 28.7984 17.5726C28.8817 17.5227 28.965 17.4707 29.0493 17.4178C29.1384 17.3629 29.2188 17.3002 29.2913 17.2306C29.456 17.0728 29.6383 16.9503 29.8392 16.8631C30.1136 16.7435 30.3665 16.5906 30.6282 16.4407C30.7428 16.375 30.9026 16.3133 31.1094 16.2554C31.1407 16.2466 31.1584 16.226 31.1613 16.1937C31.1691 16.0957 31.1966 16.0143 31.2427 15.9487Z" fill="#F99417"/>
<path d="M12.578 24.5156C12.58 24.5705 12.6074 24.6107 12.6613 24.6362C12.8495 24.7234 13.0249 24.8047 13.1866 24.8802C13.4865 25.0204 13.4728 25.0645 13.1455 25.0115C12.6956 24.94 12.2085 24.7665 11.6842 24.4931C10.5826 23.9197 9.59958 23.1651 8.73614 22.2282C8.7136 22.2036 8.70183 22.1752 8.70085 22.1419L8.66851 20.9541C8.66655 20.8835 8.71556 20.8218 8.78514 20.8061C9.87008 20.563 10.9227 20.3082 11.9439 20.0426C12.0331 20.0191 12.0801 19.9201 12.0399 19.8358C11.9988 19.7496 11.9919 19.6565 12.0203 19.5565C12.1801 18.9792 12.3408 18.4176 12.5016 17.8708C12.529 17.7777 12.5917 17.7326 12.6897 17.7365L13.1543 17.7571C13.218 17.76 13.2395 17.7914 13.219 17.8512C13.0181 18.4284 12.8279 18.9733 12.6476 19.4859C12.5937 19.6398 12.4976 19.7643 12.3594 19.8593C12.3291 19.8799 12.3183 19.9083 12.3271 19.9436C12.3516 20.0406 12.4016 20.1279 12.4761 20.2033C13.2631 21.0119 14.0942 21.7891 14.9694 22.5339C15.0478 22.6006 15.0684 22.6819 15.0301 22.777C14.8263 23.2915 14.6312 23.8021 14.446 24.3088C14.2892 24.7361 13.9168 24.8508 13.5091 24.6969C13.2111 24.5852 12.92 24.5078 12.6358 24.4647C12.6045 24.4598 12.577 24.4843 12.578 24.5156Z" fill="#B8C6C5"/>
<path d="M6.85265 18.6899C6.84481 18.7027 6.84089 18.7144 6.83991 18.7252C6.83991 18.736 6.84481 18.7458 6.85363 18.7527C6.9781 18.8507 7.11531 18.9722 7.20449 19.0996C7.58966 19.6465 7.99344 20.1561 8.41585 20.6275C8.47368 20.6912 8.507 20.7726 8.50994 20.8579L8.55307 21.9977C8.55601 22.0908 8.52758 22.1016 8.46584 22.032C7.61416 21.0617 7.02024 19.9591 6.68604 18.7242C6.7615 18.7389 6.81737 18.7272 6.85265 18.6899Z" fill="#B8C6C5"/>
<path d="M14.2677 24.8535C14.4108 24.7996 14.5617 24.5242 14.6235 24.3664C14.8146 23.8812 15.0008 23.4039 15.1831 22.9325C15.1958 22.9012 15.2007 22.8669 15.1978 22.8335L15.1919 22.7649C15.188 22.7081 15.2115 22.6924 15.2625 22.7179L15.4075 22.7924C15.435 22.8061 15.4663 22.809 15.4947 22.7992C16.7286 22.3896 17.9802 21.9779 19.2474 21.5644C19.8031 21.383 20.401 21.5604 20.8998 21.826C20.9273 21.8417 20.94 21.8741 20.9302 21.9044C20.8449 22.1446 20.7293 22.3651 20.5833 22.566C20.2491 23.0266 19.9148 23.4608 19.5826 23.8675C19.1739 24.3673 18.7652 24.7231 18.1164 24.9074C16.7208 25.3023 15.3213 25.3641 13.9178 25.0916C13.7541 25.0593 13.7522 25.0201 13.9129 24.973C14.0256 24.9397 14.1442 24.8995 14.2677 24.8535Z" fill="#B8C6C5"/>
<path d="M13.6267 25.9581C13.6375 25.965 13.6385 25.9748 13.6316 25.9855C13.6267 25.9924 13.6208 25.9983 13.613 26.0032C13.6032 26.0081 13.5924 26.0091 13.5816 26.0051C13.5591 25.9963 13.5356 26.01 13.5316 26.0336C13.5267 26.0737 13.513 26.108 13.4905 26.1374C13.4748 26.159 13.466 26.1835 13.464 26.21C13.4552 26.3246 13.3954 26.3874 13.2827 26.4001C10.7678 25.7915 8.43529 24.2587 7.31507 21.88C7.24156 21.7252 7.26116 21.7124 7.37289 21.8418C7.59145 22.0956 7.8394 22.3759 8.11774 22.6807C9.59863 24.3077 11.4274 25.4759 13.6267 25.9581Z" fill="#F5F5F5"/>
<path d="M13.2827 26.4001C13.3954 26.3874 13.4552 26.3247 13.464 26.21C13.466 26.1836 13.4748 26.1591 13.4905 26.1375C13.513 26.1081 13.5268 26.0738 13.5317 26.0336C13.5356 26.0101 13.5591 25.9964 13.5816 26.0052C13.5924 26.0091 13.6032 26.0081 13.613 26.0032C13.6208 25.9983 13.6267 25.9924 13.6316 25.9856C13.6385 25.9748 13.6375 25.965 13.6267 25.9581C16.2464 26.4305 18.923 25.9131 21.1987 24.5576C21.5016 24.3773 21.8015 24.1656 22.0984 23.9216C22.514 23.5825 22.7894 23.3355 22.9246 23.1806C23.1706 22.8993 23.4186 22.6171 23.6685 22.3338C23.6734 22.3289 23.6773 22.328 23.6822 22.3319L23.7008 22.3515C23.7087 22.3593 23.7097 22.3681 23.7038 22.377C21.3173 25.769 17.3422 27.3067 13.2827 26.4001Z" fill="#F5F5F5"/>
<path d="M4.93056 24.5871C3.16252 21.5439 2.55488 18.2656 3.10764 14.7531Z" fill="#4D4C7D"/>
<path d="M3.10793 14.753C3.06873 14.8324 3.04129 14.8138 3.02561 14.6972C3.01973 14.655 2.99523 14.6384 2.95308 14.6482C2.90702 14.6589 2.87762 14.6825 2.86292 14.7187C2.85214 14.7452 2.83155 14.7599 2.80215 14.7609C2.68748 14.7658 2.5738 14.7883 2.47775 14.8559C2.26899 15.0039 2.01516 15.097 1.84855 15.2921C1.82797 15.3166 1.8015 15.3352 1.77112 15.346C1.53884 15.4293 1.30657 15.5185 1.07429 15.6155C0.976287 15.6557 0.887101 15.6478 0.786154 15.639C0.751852 15.6361 0.722447 15.6224 0.697946 15.5998L0.438228 15.3617C0.411766 15.3381 0.381384 15.3244 0.346102 15.3215C0.231434 15.3127 0.137349 15.2627 0.0628636 15.1715C0.0589433 15.1666 0.0569834 15.1676 0.0569834 15.1735C0.0579635 15.1764 0.0569815 15.1794 0.0550214 15.1823C0.0481609 15.1931 0.0403213 15.1931 0.0315007 15.1833C0.0148396 15.1647 0.00601799 15.1274 0.00601799 15.0716C0.00307778 14.7315 0.0060187 14.3904 0.0128792 14.0484C0.0187596 13.7945 0.15009 13.6642 0.311802 13.4995C1.23797 12.5557 2.12003 11.6835 2.95994 10.8818C4.66526 9.25387 6.46956 7.88276 8.4689 6.73314C10.3261 5.66584 12.3872 4.99548 14.6531 4.72204C15.6479 4.60149 16.6593 4.55151 17.6884 4.57013C17.7109 4.57111 17.7286 4.58875 17.7286 4.61031V4.64364C17.7286 4.65638 17.7217 4.66324 17.709 4.66422C17.3042 4.68088 16.9053 4.70048 16.5123 4.724C14.2101 4.86317 12.0216 5.44631 9.94782 6.47342C7.91222 7.48191 6.18437 8.95201 4.76425 10.8857C3.88905 12.0774 3.33629 13.3662 3.10793 14.753Z" fill="#4D4C7D"/>
<path d="M3.1077 14.7532C2.55494 18.2657 3.16258 21.5441 4.93063 24.5872C4.85516 24.6401 4.7797 24.6881 4.70227 24.7303C4.61799 24.7763 4.54252 24.8273 4.47686 24.8822C4.20538 25.1046 4.00936 25.237 3.88685 25.2791C3.47425 25.4212 3.08614 25.5692 2.72253 25.7231C2.62649 25.7632 2.55494 25.8475 2.5079 25.974C1.44256 24.2 0.634009 22.3203 0.0822308 20.3337C0.0361676 20.1661 0.0116679 19.9955 0.0106878 19.8211C-0.00205309 18.2383 -0.00303496 16.6545 0.00578565 15.0717C0.00578565 15.1276 0.0146072 15.1648 0.0312684 15.1834C0.040089 15.1932 0.0479286 15.1932 0.054789 15.1824C0.0567492 15.1795 0.0577312 15.1766 0.0567511 15.1736C0.0567511 15.1677 0.058711 15.1668 0.0626313 15.1717C0.137116 15.2628 0.231201 15.3128 0.345869 15.3216C0.381152 15.3245 0.411534 15.3383 0.437996 15.3618L0.697713 15.5999C0.722215 15.6225 0.751619 15.6362 0.785922 15.6391C0.886869 15.648 0.976055 15.6558 1.07406 15.6156C1.30634 15.5186 1.53861 15.4294 1.77089 15.3461C1.80127 15.3353 1.82773 15.3167 1.84831 15.2922C2.01493 15.0972 2.26876 15.0041 2.47752 14.8561C2.57356 14.7884 2.68725 14.7659 2.80192 14.761C2.83132 14.76 2.8519 14.7453 2.86269 14.7189C2.87739 14.6826 2.90679 14.6591 2.95285 14.6483C2.99499 14.6385 3.01949 14.6552 3.02537 14.6973C3.04106 14.8139 3.0685 14.8326 3.1077 14.7532Z" fill="#4D4C7D"/>
<path d="M9.7066 33.439L9.6919 33.3488C9.68896 33.3341 9.69484 33.3282 9.70954 33.3331C9.71836 33.3361 9.7262 33.341 9.7311 33.3488C9.73404 33.3537 9.7409 33.3547 9.7458 33.3508C10.0065 33.1136 10.2584 32.8696 10.5014 32.6197C10.5779 32.5413 10.6661 32.4726 10.7651 32.4138C10.8601 32.358 10.9532 32.2943 11.0444 32.2208C11.0562 32.212 11.0689 32.2061 11.0826 32.2051C11.0954 32.2031 11.1071 32.2012 11.1199 32.1982C11.1591 32.1874 11.1894 32.1659 11.211 32.1316C11.2806 32.0208 11.3639 31.9297 11.4609 31.8562C11.5344 31.8013 11.6001 31.7405 11.6579 31.6749C11.6814 31.6474 11.7108 31.6357 11.7471 31.6406C11.7775 31.6455 11.7941 31.6327 11.7951 31.6023C11.7971 31.5573 11.8196 31.5406 11.8637 31.5514C11.9529 31.5739 12.0166 31.5494 12.0548 31.4759C13.176 32.1002 14.3433 32.6099 15.5576 33.0048C15.6311 33.0293 15.7232 33.0342 15.834 33.0205C15.9173 33.0097 15.9977 32.9882 16.077 32.9539C18.4978 31.9081 20.7108 30.6389 22.717 29.1473C25.518 27.0646 28.1436 24.5253 30.5526 21.9134C30.5928 21.8703 30.6428 21.8419 30.7036 21.8272C30.7418 21.8183 30.7741 21.8566 30.7594 21.8928C29.7862 24.3165 28.4788 26.5129 26.8352 28.4838C23.947 31.9493 20.3217 34.6847 16.0114 35.9548C15.8154 36.0127 15.6144 36.0146 15.4086 35.9627C13.3652 35.4403 11.4648 34.5984 9.7066 33.439Z" fill="#4D4C7D"/>
<path d="M4.93054 24.5872C5.41371 25.4114 5.94785 26.1749 6.53295 26.8786C6.29185 27.0011 6.05468 27.152 5.82044 27.3304C5.77732 27.3627 5.71459 27.4372 5.63227 27.5528C5.57444 27.6332 5.50486 27.6969 5.42254 27.744C5.00993 27.9841 4.63358 28.2507 4.29252 28.5457C3.65841 27.7665 3.06351 26.9089 2.50781 25.974C2.55486 25.8475 2.6264 25.7632 2.72245 25.7231C3.08605 25.5692 3.47416 25.4212 3.88677 25.2791C4.00928 25.2369 4.20529 25.1046 4.47677 24.8822C4.54244 24.8273 4.6179 24.7763 4.70219 24.7303C4.77961 24.6881 4.85507 24.6401 4.93054 24.5872Z" fill="#4D4C7D"/>
<path d="M6.53291 26.8785C7.13762 27.6048 7.76486 28.2604 8.41366 28.8475C7.98929 29.2385 7.54826 29.609 7.09057 29.9589C7.08371 29.9638 7.08077 29.9697 7.07979 29.9775C7.07881 29.9814 7.07979 29.9854 7.08175 29.9883C7.08665 29.9952 7.08469 30.001 7.07685 30.005C6.86712 30.1147 6.67502 30.25 6.50155 30.4107C6.47803 30.4332 6.45059 30.446 6.41825 30.4489C6.3565 30.4558 6.3124 30.4911 6.2879 30.5558C6.3026 30.591 6.27712 30.6253 6.21047 30.6577C5.53716 30.0099 4.89718 29.3052 4.29248 28.5456C4.63354 28.2506 5.00989 27.9841 5.4225 27.7439C5.50482 27.6969 5.57441 27.6332 5.63223 27.5528C5.71456 27.4372 5.77728 27.3627 5.82041 27.3303C6.05464 27.152 6.29182 27.001 6.53291 26.8785Z" fill="#4D4C7D"/>
<path d="M8.41364 28.8474C9.53778 29.8745 10.7521 30.7507 12.0546 31.476C12.0164 31.5495 11.9527 31.574 11.8635 31.5514C11.8194 31.5406 11.7968 31.5573 11.7949 31.6024C11.7939 31.6328 11.7772 31.6455 11.7469 31.6406C11.7106 31.6357 11.6812 31.6475 11.6577 31.6749C11.5998 31.7406 11.5342 31.8013 11.4607 31.8562C11.3636 31.9297 11.2803 32.0209 11.2108 32.1316C11.1892 32.1659 11.1588 32.1875 11.1196 32.1983C11.1069 32.2012 11.0951 32.2032 11.0824 32.2051C11.0686 32.2061 11.0559 32.212 11.0441 32.2208C10.953 32.2943 10.8599 32.358 10.7648 32.4139C10.6658 32.4727 10.5776 32.5413 10.5012 32.6197C10.2581 32.8696 10.0063 33.1136 9.74555 33.3508C9.74065 33.3547 9.73379 33.3538 9.73085 33.3489C9.72595 33.341 9.71811 33.3361 9.70929 33.3332C9.69459 33.3283 9.68871 33.3342 9.69165 33.3489L9.70635 33.439C8.44893 32.6256 7.28362 31.6984 6.21045 30.6576C6.27709 30.6253 6.30258 30.591 6.28788 30.5557C6.31238 30.491 6.35648 30.4557 6.41823 30.4488C6.45057 30.4459 6.47801 30.4332 6.50153 30.4106C6.675 30.2499 6.8671 30.1146 7.07683 30.0049C7.08467 30.001 7.08663 29.9951 7.08173 29.9882C7.07977 29.9853 7.07879 29.9814 7.07977 29.9774C7.08075 29.9696 7.08369 29.9637 7.09055 29.9588C7.54824 29.6089 7.98927 29.2385 8.41364 28.8474Z" fill="#4D4C7D"/>
<path d="M1.936 52V43H5.626V44.38H3.316V47.53H5.302V48.91H3.316V52H1.936ZM10.1276 52.192C9.46359 52.192 8.93159 51.988 8.53159 51.58C8.13559 51.172 7.93759 50.636 7.93759 49.972V45.028C7.93759 44.36 8.13559 43.824 8.53159 43.42C8.93159 43.012 9.46359 42.808 10.1276 42.808C10.7956 42.808 11.3276 43.012 11.7236 43.42C12.1196 43.824 12.3176 44.36 12.3176 45.028V49.972C12.3176 50.636 12.1196 51.172 11.7236 51.58C11.3276 51.988 10.7956 52.192 10.1276 52.192ZM10.1276 50.812C10.3796 50.812 10.5776 50.736 10.7216 50.584C10.8656 50.428 10.9376 50.224 10.9376 49.972V45.028C10.9376 44.776 10.8656 44.574 10.7216 44.422C10.5776 44.266 10.3796 44.188 10.1276 44.188C9.87559 44.188 9.67759 44.266 9.53359 44.422C9.38959 44.574 9.31759 44.776 9.31759 45.028V49.972C9.31759 50.224 9.38959 50.428 9.53359 50.584C9.67759 50.736 9.87559 50.812 10.1276 50.812ZM17.3159 52.192C16.6519 52.192 16.1199 51.988 15.7199 51.58C15.3239 51.172 15.1259 50.636 15.1259 49.972V45.028C15.1259 44.36 15.3239 43.824 15.7199 43.42C16.1199 43.012 16.6519 42.808 17.3159 42.808C17.9839 42.808 18.5159 43.012 18.9119 43.42C19.3079 43.824 19.5059 44.36 19.5059 45.028V49.972C19.5059 50.636 19.3079 51.172 18.9119 51.58C18.5159 51.988 17.9839 52.192 17.3159 52.192ZM17.3159 50.812C17.5679 50.812 17.7659 50.736 17.9099 50.584C18.0539 50.428 18.1259 50.224 18.1259 49.972V45.028C18.1259 44.776 18.0539 44.574 17.9099 44.422C17.7659 44.266 17.5679 44.188 17.3159 44.188C17.0639 44.188 16.8659 44.266 16.7219 44.422C16.5779 44.574 16.5059 44.776 16.5059 45.028V49.972C16.5059 50.224 16.5779 50.428 16.7219 50.584C16.8659 50.736 17.0639 50.812 17.3159 50.812ZM23.0642 52V44.38H21.6662V43H25.8362V44.38H24.4442V52H23.0642ZM29.5027 52H28.1227V43H29.5027V52Z" fill="white"/>
</svg>
