<svg width="22" height="25" viewBox="0 0 22 25" fill="none" xmlns="http://www.w3.org/2000/svg">
<g clipPath="url(#clip0_200_662)">
<mask id="mask0_200_662" style="mask-type:luminance" maskUnits="userSpaceOnUse" x="0" y="0" width="22" height="25">
<path d="M21.2844 0H0V25H21.2844V0Z" fill="white"/>
</mask>
<g mask="url(#mask0_200_662)">
<path d="M3.32923 23.1742C3.28075 24.2664 2.58581 24.9831 1.66461 24.9831C1.17978 24.9831 0.75958 24.7783 0.420193 24.3858C0.145452 24.0616 0 23.635 0 23.1572C0 22.6793 0.177774 22.2357 0.517163 21.8773C0.840387 21.536 1.22826 21.3824 1.7131 21.3824C2.37571 21.3824 2.89287 21.7237 3.15145 22.321H2.56965C2.35955 22.0309 2.05249 21.8773 1.68078 21.8773C1.37371 21.8773 1.08281 21.9968 0.87271 22.2357C0.646453 22.4916 0.517163 22.8329 0.517163 23.1572C0.517163 23.5155 0.63029 23.8568 0.85655 24.0787C1.08281 24.3346 1.38987 24.4712 1.69694 24.4712C2.19794 24.4712 2.56965 24.1981 2.82823 23.635H1.30907V23.1401H3.32923V23.1742Z" fill="white"/>
<path d="M3.84621 24.9319H3.34521L4.62198 21.4678H5.09065L6.36738 24.9319H5.85025L5.49468 23.9251H4.21795L3.84621 24.9319ZM4.84821 22.1162L4.37955 23.4302H5.31691L4.84821 22.1162Z" fill="white"/>
<path d="M6.54541 24.9319V21.4678H7.25651L8.21004 24.147L9.16354 21.4678H9.85848V24.9319H9.40598L9.43831 21.9285L8.37164 24.9319H8.03228L6.96561 21.9285L6.99794 24.9319H6.54541Z" fill="white"/>
<path d="M11.9271 25.0003C11.4423 25.0003 11.0382 24.8125 10.715 24.4542C10.4079 24.1129 10.2463 23.6863 10.2463 23.1743C10.2463 22.6965 10.4241 22.2528 10.7473 21.9286C11.0705 21.5873 11.4746 21.4166 11.9433 21.4166C12.7028 21.4166 13.3655 21.9456 13.5755 22.7989H12.7028C12.5251 22.4576 12.2665 22.2699 11.9433 22.2699C11.4584 22.2699 11.0705 22.6624 11.0705 23.1743C11.0705 23.7204 11.4746 24.147 11.9271 24.147C12.2342 24.147 12.5089 23.9764 12.6867 23.6521H13.5594C13.3331 24.4883 12.719 25.0003 11.9271 25.0003Z" fill="white"/>
<path d="M14.3673 24.9319H13.4946L14.7552 21.4678H15.4017L16.6622 24.9319H15.7734L15.6118 24.4371H14.529L14.3673 24.9319ZM15.0784 22.5941L14.7552 23.7033H15.4017L15.0784 22.5941Z" fill="white"/>
<path d="M16.7268 24.9319V21.4678H17.8096C18.149 21.4678 18.4237 21.4848 18.6338 21.6555C18.9247 21.8773 19.0702 22.2016 19.0702 22.6282C19.0702 23.1913 18.7954 23.6009 18.3268 23.7374L19.1348 24.9319H18.149L17.5187 23.8227V24.9319H16.7268ZM17.6803 23.0548C18.0843 23.0548 18.2621 22.9524 18.2621 22.6282C18.2621 22.3381 18.0843 22.2186 17.745 22.2186H17.5187V23.0377H17.6803V23.0548Z" fill="white"/>
<path d="M19.5066 24.9319V21.4678H21.2844V22.2357H20.3147V22.7988H21.2844V23.5668H20.3147V24.164H21.2844V24.9319H19.5066Z" fill="white"/>
<path d="M20.7027 11.9627C20.6219 11.9115 20.5249 11.8774 20.4118 11.8604C20.3795 11.8604 20.3633 11.8604 20.331 11.8604C20.3148 11.8604 20.2987 11.8604 20.2987 11.8604H20.2664C20.234 11.8604 20.2017 11.8604 20.1694 11.8604H13.7534C13.3008 11.8604 12.9291 12.2528 12.9291 12.7307C12.9291 13.2085 13.3008 13.601 13.7534 13.601H16.2422C16.323 13.601 16.3876 13.6692 16.3876 13.7545C16.3876 13.8057 16.3553 13.8399 16.323 13.874C14.9655 14.6419 13.2039 15.1027 11.2807 15.1027C10.812 15.1027 10.3595 15.0685 9.90698 15.0173V16.9798C10.2948 17.0139 10.6827 17.031 11.0867 17.031C13.7534 17.031 16.1937 16.3484 18.0199 15.2221C18.0361 15.2051 18.0684 15.2051 18.1007 15.2051C18.1977 15.2051 18.2624 15.2733 18.2624 15.3757C18.2624 15.3928 18.2624 15.4098 18.2624 15.4269L17.8907 16.5191C17.6967 17.0993 17.9715 17.7307 18.5048 17.9354C18.6179 17.9866 18.7472 18.0037 18.8603 18.0037C19.2805 18.0037 19.6846 17.7307 19.8462 17.287L21.2199 13.345C21.4138 12.7989 21.1714 12.2187 20.7027 11.9627Z" fill="white"/>
<path d="M11.2968 4.53933C13.2362 4.53933 14.9978 5.01713 16.3715 5.78506C16.3715 5.78506 17.2442 6.45056 17.6482 5.81916C18.1169 5.08539 17.1795 4.64169 17.1795 4.64169C15.4826 3.80553 13.3816 3.29358 11.1029 3.29358C10.6989 3.29358 10.311 3.31064 9.9231 3.34476V4.60756C10.3756 4.55639 10.8281 4.53933 11.2968 4.53933Z" fill="white"/>
<path d="M1.45452 0C0.662613 0 0 0.682593 0 1.53584V18.2082C0 19.0444 0.646453 19.744 1.45452 19.744H9.92303V16.9795C4.83223 16.587 0.87271 13.686 0.87271 10.1536C0.87271 6.62117 4.83223 3.72013 9.92303 3.32764V0H1.45452Z" fill="white"/>
<path d="M3.44263 9.81219C3.44263 12.4231 6.23853 14.5733 9.92333 15.017V4.60742C6.23853 5.05109 3.44263 7.21832 3.44263 9.81219Z" fill="white"/>
</g>
</g>
<defs>
<clipPath id="clip0_200_662">
<rect width="21.3333" height="25" fill="white"/>
</clipPath>
</defs>
</svg>
