<svg width="31" height="31" viewBox="0 0 31 31" fill="none" xmlns="http://www.w3.org/2000/svg">
<path d="M8.11112 14.3086C11.5795 14.3086 14.4014 11.4867 14.4014 8.01832L14.4014 0.760254L10.5305 0.760254L10.5305 8.01832C10.5305 9.35235 9.44516 10.4377 8.11112 10.4377C6.77709 10.4377 5.69177 9.35235 5.69177 8.01832L5.69177 0.760254L1.8208 0.760254L1.8208 8.01832C1.8208 11.4867 4.64274 14.3086 8.11112 14.3086ZM2.78854 1.728L4.72403 1.728L4.72403 8.01832C4.72403 9.88606 6.24338 11.4054 8.11112 11.4054C9.97887 11.4054 11.4982 9.88606 11.4982 8.01832L11.4982 1.728L13.4337 1.728L13.4337 8.01832C13.4337 10.953 11.0458 13.3409 8.11112 13.3409C5.17645 13.3409 2.78854 10.953 2.78854 8.01832L2.78854 1.728Z" fill="url(#paint0_linear_200_711)"/>
<path d="M19.2401 10.4377L24.0788 10.4377C26.7469 10.4377 28.9175 8.26703 28.9175 5.59896C28.9175 2.9309 26.7469 0.760254 24.0788 0.760254L15.3691 0.760254L15.3691 14.3086L19.2401 14.3086L19.2401 10.4377ZM18.2724 13.3409L16.3369 13.3409L16.3369 1.728L24.0788 1.728C26.2132 1.728 27.9498 3.46461 27.9498 5.59896C27.9498 7.73332 26.2132 9.46993 24.0788 9.46993L18.2724 9.46993L18.2724 13.3409Z" fill="url(#paint1_linear_200_711)"/>
<path d="M26.0142 5.59894C26.0142 4.53152 25.1461 3.66345 24.0787 3.66345L18.2722 3.66345L18.2722 7.53442L24.0787 7.53442C25.1461 7.53442 26.0142 6.66636 26.0142 5.59894ZM19.24 4.63119L24.0787 4.63119C24.6124 4.63119 25.0464 5.06523 25.0464 5.59894C25.0464 6.13265 24.6124 6.56668 24.0787 6.56668L19.24 6.56668L19.24 4.63119Z" fill="url(#paint2_linear_200_711)"/>
<path d="M7.14341 15.1172L1.98437 19.6312L4.72405 19.6312L4.72405 30.7603L5.69179 30.7603L5.69179 18.6635L4.5605 18.6635L7.14341 16.4033L9.72631 18.6635L8.59502 18.6635L8.59502 29.7925L9.56276 29.7925L9.56276 19.6312L12.3024 19.6312L7.14341 15.1172Z" fill="url(#paint3_linear_200_711)"/>
<path d="M7.62717 19.6313L6.65942 19.6313L6.65942 28.8249L7.62717 28.8249L7.62717 19.6313Z" fill="url(#paint4_linear_200_711)"/>
<path d="M7.62717 29.7926L6.65942 29.7926L6.65942 30.7603L7.62717 30.7603L7.62717 29.7926Z" fill="url(#paint5_linear_200_711)"/>
<path d="M25.0467 11.2462L19.8877 15.7602L22.6274 15.7602L22.6274 26.8893L23.5951 26.8893L23.5951 14.7925L22.4638 14.7925L25.0467 12.5323L27.6296 14.7925L26.4983 14.7925L26.4983 30.7602L27.4661 30.7602L27.4661 15.7602L30.2058 15.7602L25.0467 11.2462Z" fill="url(#paint6_linear_200_711)"/>
<path d="M25.5305 20.5991L24.5627 20.5991L24.5627 27.8572L25.5305 27.8572L25.5305 20.5991Z" fill="url(#paint7_linear_200_711)"/>
<path d="M25.5305 28.825L24.5627 28.825L24.5627 29.7927L25.5305 29.7927L25.5305 28.825Z" fill="url(#paint8_linear_200_711)"/>
<path d="M23.5949 27.8572L22.6272 27.8572L22.6272 28.8249L23.5949 28.8249L23.5949 27.8572Z" fill="url(#paint9_linear_200_711)"/>
<path d="M11.1777 22.5344L13.9174 22.5344L13.9174 29.7925L14.8852 29.7925L14.8852 21.5667L13.7539 21.5667L16.3368 19.3065L18.9197 21.5667L17.7884 21.5667L17.7884 29.7925L18.7561 29.7925L18.7561 22.5344L21.4958 22.5344L16.3368 18.0204L11.1777 22.5344Z" fill="url(#paint10_linear_200_711)"/>
<path d="M16.8208 22.5344L15.853 22.5344L15.853 28.8247L16.8208 28.8247L16.8208 22.5344Z" fill="url(#paint11_linear_200_711)"/>
<path d="M16.8208 29.7926L15.853 29.7926L15.853 30.7603L16.8208 30.7603L16.8208 29.7926Z" fill="url(#paint12_linear_200_711)"/>
<path d="M30.3691 16.728L29.4014 16.728L29.4014 28.8248L30.3691 28.8248L30.3691 16.728Z" fill="url(#paint13_linear_200_711)"/>
<path d="M30.3691 29.7926L29.4014 29.7926L29.4014 30.7603L30.3691 30.7603L30.3691 29.7926Z" fill="url(#paint14_linear_200_711)"/>
<path d="M1.33688 20.5989L0.369141 20.5989L0.36914 27.8569L1.33688 27.8569L1.33688 20.5989Z" fill="url(#paint15_linear_200_711)"/>
<path d="M1.33688 28.825L0.369141 28.825L0.369141 29.7927L1.33688 29.7927L1.33688 28.825Z" fill="url(#paint16_linear_200_711)"/>
<defs>
<linearGradient id="paint0_linear_200_711" x1="8.11112" y1="0.760254" x2="8.11112" y2="14.3086" gradientUnits="userSpaceOnUse">
<stop stop-color="#30F0AA"/>
<stop offset="1" stop-color="#99FC7C"/>
</linearGradient>
<linearGradient id="paint1_linear_200_711" x1="22.1433" y1="0.760254" x2="22.1433" y2="14.3086" gradientUnits="userSpaceOnUse">
<stop stop-color="#30F0AA"/>
<stop offset="1" stop-color="#99FC7C"/>
</linearGradient>
<linearGradient id="paint2_linear_200_711" x1="22.1432" y1="3.66345" x2="22.1432" y2="7.53442" gradientUnits="userSpaceOnUse">
<stop stop-color="#30F0AA"/>
<stop offset="1" stop-color="#99FC7C"/>
</linearGradient>
<linearGradient id="paint3_linear_200_711" x1="7.14341" y1="15.1172" x2="7.14341" y2="30.7603" gradientUnits="userSpaceOnUse">
<stop stop-color="#30F0AA"/>
<stop offset="1" stop-color="#99FC7C"/>
</linearGradient>
<linearGradient id="paint4_linear_200_711" x1="7.14329" y1="19.6313" x2="7.14329" y2="28.8249" gradientUnits="userSpaceOnUse">
<stop stop-color="#30F0AA"/>
<stop offset="1" stop-color="#99FC7C"/>
</linearGradient>
<linearGradient id="paint5_linear_200_711" x1="7.14329" y1="29.7926" x2="7.14329" y2="30.7603" gradientUnits="userSpaceOnUse">
<stop stop-color="#30F0AA"/>
<stop offset="1" stop-color="#99FC7C"/>
</linearGradient>
<linearGradient id="paint6_linear_200_711" x1="25.0467" y1="11.2462" x2="25.0467" y2="30.7603" gradientUnits="userSpaceOnUse">
<stop stop-color="#30F0AA"/>
<stop offset="1" stop-color="#99FC7C"/>
</linearGradient>
<linearGradient id="paint7_linear_200_711" x1="25.0466" y1="20.5991" x2="25.0466" y2="27.8572" gradientUnits="userSpaceOnUse">
<stop stop-color="#30F0AA"/>
<stop offset="1" stop-color="#99FC7C"/>
</linearGradient>
<linearGradient id="paint8_linear_200_711" x1="25.0466" y1="28.825" x2="25.0466" y2="29.7927" gradientUnits="userSpaceOnUse">
<stop stop-color="#30F0AA"/>
<stop offset="1" stop-color="#99FC7C"/>
</linearGradient>
<linearGradient id="paint9_linear_200_711" x1="23.1111" y1="27.8572" x2="23.1111" y2="28.8249" gradientUnits="userSpaceOnUse">
<stop stop-color="#30F0AA"/>
<stop offset="1" stop-color="#99FC7C"/>
</linearGradient>
<linearGradient id="paint10_linear_200_711" x1="16.3368" y1="18.0204" x2="16.3368" y2="29.7925" gradientUnits="userSpaceOnUse">
<stop stop-color="#30F0AA"/>
<stop offset="1" stop-color="#99FC7C"/>
</linearGradient>
<linearGradient id="paint11_linear_200_711" x1="16.3369" y1="22.5344" x2="16.3369" y2="28.8247" gradientUnits="userSpaceOnUse">
<stop stop-color="#30F0AA"/>
<stop offset="1" stop-color="#99FC7C"/>
</linearGradient>
<linearGradient id="paint12_linear_200_711" x1="16.3369" y1="29.7926" x2="16.3369" y2="30.7603" gradientUnits="userSpaceOnUse">
<stop stop-color="#30F0AA"/>
<stop offset="1" stop-color="#99FC7C"/>
</linearGradient>
<linearGradient id="paint13_linear_200_711" x1="29.8852" y1="16.728" x2="29.8852" y2="28.8248" gradientUnits="userSpaceOnUse">
<stop stop-color="#30F0AA"/>
<stop offset="1" stop-color="#99FC7C"/>
</linearGradient>
<linearGradient id="paint14_linear_200_711" x1="29.8852" y1="29.7926" x2="29.8852" y2="30.7603" gradientUnits="userSpaceOnUse">
<stop stop-color="#30F0AA"/>
<stop offset="1" stop-color="#99FC7C"/>
</linearGradient>
<linearGradient id="paint15_linear_200_711" x1="0.853012" y1="20.5989" x2="0.853011" y2="27.8569" gradientUnits="userSpaceOnUse">
<stop stop-color="#30F0AA"/>
<stop offset="1" stop-color="#99FC7C"/>
</linearGradient>
<linearGradient id="paint16_linear_200_711" x1="0.853012" y1="28.825" x2="0.853012" y2="29.7927" gradientUnits="userSpaceOnUse">
<stop stop-color="#30F0AA"/>
<stop offset="1" stop-color="#99FC7C"/>
</linearGradient>
</defs>
</svg>
