<svg width="149" height="147" viewBox="0 0 149 147" fill="none" xmlns="http://www.w3.org/2000/svg">
<g clip-path="url(#clip0_178_481)">
<path d="M97.452 45.7747C89.0625 35.9646 76.5988 29.7461 62.6876 29.7461C37.4117 29.7461 16.9337 50.2241 16.9337 75.5C16.9337 89.8132 23.5274 102.599 33.82 110.988C41.7003 117.394 51.7517 121.254 62.6876 121.254C87.9635 121.254 108.442 100.776 108.442 75.5C108.415 64.1353 104.287 53.7622 97.452 45.7747Z" fill="#E0E0E0"/>
<path d="M83.7553 96.943C98.1221 82.5762 102.813 62.527 97.4252 45.7747C89.0357 35.9646 76.5719 29.7461 62.6608 29.7461C37.3849 29.7461 16.9069 50.2241 16.9069 75.5C16.9069 89.8132 23.5006 102.599 33.7932 110.988C50.3043 115.759 69.737 110.961 83.7553 96.943Z" fill="white"/>
<path d="M94.0212 76.2237C97.0768 72.5784 97.8005 60.5435 97.8809 58.9889L105.627 59.6054C105.627 59.6054 100.963 44.2737 85.1491 35.7233V44.3005C80.2977 44.3273 69.7638 46.3107 67.6999 46.7396C60.4897 41.0036 53.9496 40.7356 52.529 40.7356L52.1806 32.212L56.0403 30.2285C56.0403 30.2285 51.4301 30.7378 47.4095 32.1852L51.7249 32.346L52.0734 40.816C44.5683 42.9603 38.9127 50.8406 37.8942 52.3148C31.5149 52.2612 26.7439 54.9147 25.1624 55.9333V48.9911C25.1624 48.9911 17.8986 57.5415 16.6121 74.3474H18.81C18.8636 76.0361 19.4532 83.7287 26.2882 90.4564C26.3954 99.1945 30.8716 105.44 31.783 106.619L30.3356 107.932L30.6572 108.281L32.1314 106.968C36.5004 110.452 44.6219 111.712 46.3106 111.953C47.0879 112.757 52.7971 118.493 60.1413 120.557L60.0609 121.281C72.8462 122.058 81.8791 117.153 81.8791 117.153L80.1637 115.652C81.6379 113.481 84.2378 105.788 84.5863 104.743C90.1882 102.357 96.4335 94.3966 97.5861 92.8688L104.877 93.4585L105.091 92.9224L97.7737 92.4131C97.6665 83.8091 94.7449 77.6443 94.0212 76.2237ZM63.6526 63.5187L77.2957 78.3412L71.0504 96.6213C68.0484 98.1759 54.0568 100.213 51.1352 100.642C46.2302 96.6749 39.9849 88.2317 38.7787 86.5431C39.3416 84.506 43.3354 70.4609 45.2384 68.0754C47.3559 67.3517 61.7763 63.9476 63.6526 63.5187ZM19.3192 74.2938C19.3192 74.2938 20.0965 63.5991 24.8408 56.6302V56.657C24.8944 56.6034 30.1211 52.7168 37.7602 52.7436C39.2344 59.525 43.7374 66.3599 44.7559 67.8609C42.7725 70.5413 38.9663 83.9163 38.2963 86.3287L26.583 90.0276C19.9089 83.4339 19.3192 75.9556 19.2656 74.2938H19.3192ZM60.5433 120.075C53.3867 118.198 47.7312 112.677 46.7126 111.605L51.1084 101.098C53.9764 100.695 68.0484 98.6584 71.238 97.0502L83.9966 104.689C83.4605 106.297 80.941 113.588 79.6276 115.357C75.0173 117.957 62.9021 119.753 60.5433 120.075ZM77.5905 77.9659L64.001 63.1703C64.9927 60.9456 67.3783 49.286 67.8071 47.1685C69.8978 46.7664 80.7533 44.6757 85.3636 44.7561C86.8914 45.9355 95.3614 52.6632 97.5057 58.8013H97.4252C97.4252 58.9353 96.7551 72.2567 93.6459 75.9288L77.5905 77.9659Z" fill="#3A3A39"/>
<path d="M25.1356 48.9375C25.1356 48.9375 17.8718 57.4879 16.5853 74.2938H16.9337C17.1749 65.0197 20.1769 56.4425 25.1356 49.3396V48.9375Z" fill="#3A3A39"/>
<path d="M56.0135 30.1749C56.0135 30.1749 51.4033 30.6842 47.3827 32.1316L47.9188 32.1584C50.4919 31.2739 53.1723 30.6306 55.9331 30.2285L56.0135 30.1749Z" fill="#3A3A39"/>
<path d="M30.2819 107.852L30.6036 108.201L30.6572 108.174C30.5232 108.04 30.416 107.932 30.2819 107.852Z" fill="#3A3A39"/>
<path d="M95.4686 79.6546C92.815 85.8731 88.9016 91.7699 83.7553 96.943C82.1203 98.578 80.4049 100.106 78.609 101.5L83.9966 104.716C83.4605 106.324 80.9409 113.615 79.6276 115.384C74.9905 117.957 62.9021 119.753 60.5165 120.075C54.8341 118.574 50.0899 114.794 47.8652 112.757C47.6239 112.757 47.4095 112.757 47.1683 112.757C49.2054 114.66 54.0836 118.761 60.0609 120.45L59.9804 121.174C72.7658 121.951 81.7987 117.046 81.7987 117.046L80.0832 115.545C81.5574 113.374 84.1574 105.681 84.5058 104.636C90.1078 102.25 96.3531 94.2894 97.5056 92.7616L104.796 93.3513L105.011 92.8152L97.6933 92.3059C97.6665 86.972 96.5139 82.5494 95.4686 79.6546Z" fill="#212121"/>
<path d="M97.452 45.7747C98.819 50.0633 99.5427 54.5663 99.5963 59.1229L105.627 59.6054C105.627 59.6054 101.607 46.4716 88.4996 37.7336C91.7965 39.9851 94.8253 42.6923 97.452 45.7747Z" fill="#212121"/>
</g>
<defs>
<clipPath id="clip0_178_481">
<rect width="149" height="147" fill="white"/>
</clipPath>
</defs>
</svg>
