<svg width="20" height="20" viewBox="0 0 20 20" fill="none" xmlns="http://www.w3.org/2000/svg">
<g clipPath="url(#clip0_200_686)">
<path d="M19.9987 14.9443C19.9987 15.0538 19.9954 15.2913 19.9888 15.4748C19.9727 15.9237 19.9371 16.5029 19.8833 16.7668C19.8025 17.1634 19.6804 17.5377 19.5212 17.8493C19.3329 18.2179 19.0926 18.548 18.8071 18.833C18.5223 19.1174 18.1925 19.3567 17.8244 19.5442C17.5112 19.7038 17.1346 19.826 16.7357 19.9065C16.4744 19.9593 15.8995 19.9942 15.4535 20.01C15.2699 20.0166 15.0323 20.0199 14.9232 20.0199L5.07506 20.0183C4.96555 20.0183 4.72809 20.015 4.54463 20.0084C4.09574 19.9923 3.51652 19.9567 3.2526 19.9029C2.856 19.822 2.48164 19.6999 2.17008 19.5408C1.80148 19.3524 1.47135 19.1122 1.18641 18.8267C0.902031 18.5419 0.662734 18.212 0.475176 17.844C0.315527 17.5308 0.193379 17.1541 0.112852 16.7553C0.0601172 16.494 0.0252148 15.9191 0.00933594 15.473C0.0028125 15.2894 -0.000488281 15.0519 -0.000488281 14.9428L0.00107422 5.09461C0.00107422 4.9851 0.00441406 4.74762 0.0109961 4.56416C0.0271094 4.11527 0.0626758 3.53605 0.116484 3.27215C0.197363 2.87555 0.319434 2.50119 0.478633 2.18961C0.666973 1.82104 0.907227 1.49088 1.19268 1.20594C1.47752 0.921582 1.80736 0.682266 2.17539 0.494687C2.48861 0.335078 2.86531 0.21293 3.26416 0.132402C3.52543 0.0796484 4.10033 0.0447461 4.54635 0.0288867C4.72998 0.0223437 4.96754 0.019043 5.0766 0.019043L14.9248 0.020625C15.0343 0.020625 15.2718 0.0239648 15.4552 0.0305469C15.9041 0.0466602 16.4833 0.0822266 16.7473 0.136035C17.1438 0.216914 17.5182 0.338984 17.8298 0.498184C18.1984 0.686523 18.5285 0.926777 18.8134 1.21223C19.0978 1.49707 19.3371 1.82689 19.5247 2.19494C19.6843 2.50816 19.8065 2.88484 19.887 3.28369C19.9397 3.54498 19.9746 4.11986 19.9905 4.5659C19.9971 4.74953 20.0004 4.98707 20.0004 5.09617L19.9987 14.9443V14.9443Z" fill="url(#paint0_linear_200_686)"/>
<path d="M15.2989 4.75089C13.9449 3.39567 12.1441 2.64896 10.2254 2.64819C6.27229 2.64819 3.05488 5.86437 3.0533 9.81757C3.05279 11.0812 3.38305 12.3147 4.01066 13.402L2.99316 17.1174L6.79522 16.1204C7.84279 16.6916 9.02221 16.9926 10.2226 16.9931H10.2255C14.1783 16.9931 17.396 13.7765 17.3976 9.82327C17.3984 7.90751 16.6531 6.1061 15.2989 4.75089ZM10.2255 15.7822H10.2231C9.15344 15.7817 8.1043 15.4945 7.18904 14.9515L6.97135 14.8224L4.71516 15.414L5.31738 13.215L5.17561 12.9895C4.57889 12.0407 4.26373 10.944 4.2642 9.81804C4.26549 6.53231 6.93969 3.85913 10.2279 3.85913C11.8201 3.85974 13.3168 4.48044 14.4423 5.60683C15.5678 6.73321 16.1872 8.2305 16.1867 9.82282C16.1854 13.1088 13.5112 15.7822 10.2255 15.7822ZM13.4954 11.319C13.3161 11.2293 12.4351 10.7959 12.2708 10.7361C12.1066 10.6763 11.9871 10.6464 11.8676 10.8258C11.7482 11.0051 11.4047 11.4087 11.3002 11.5282C11.1956 11.6478 11.0911 11.6627 10.9119 11.5731C10.7327 11.4834 10.1553 11.2942 9.47076 10.6839C8.93805 10.2089 8.57836 9.62218 8.47383 9.4428C8.3693 9.26345 8.46272 9.16651 8.55242 9.07718C8.63303 8.99692 8.73162 8.86794 8.82123 8.76333C8.91082 8.65874 8.9407 8.58397 9.00043 8.46442C9.06018 8.34485 9.03029 8.24022 8.98549 8.15056C8.9407 8.06089 8.58229 7.17909 8.43295 6.8204C8.2875 6.47106 8.13973 6.51833 8.02973 6.51284C7.92531 6.50765 7.80572 6.50655 7.68627 6.50655C7.56682 6.50655 7.37266 6.55138 7.2084 6.73073C7.04414 6.91009 6.58119 7.34351 6.58119 8.22528C6.58119 9.10706 7.22332 9.95896 7.31293 10.0785C7.40254 10.1981 8.57658 12.0076 10.3743 12.7836C10.8019 12.9682 11.1356 13.0784 11.3959 13.161C11.8252 13.2973 12.2159 13.2781 12.5247 13.232C12.869 13.1806 13.5849 12.7986 13.7343 12.3801C13.8836 11.9616 13.8836 11.603 13.8388 11.5282C13.794 11.4535 13.6746 11.4087 13.4954 11.319Z" fill="white"/>
</g>
<defs>
<linearGradient id="paint0_linear_200_686" x1="9.99992" y1="0.019043" x2="9.99992" y2="20.0199" gradientUnits="userSpaceOnUse">
<stop stop-color="#61FD7D"/>
<stop offset="1" stop-color="#2BB826"/>
</linearGradient>
<clipPath id="clip0_200_686">
<rect width="20" height="20" fill="white"/>
</clipPath>
</defs>
</svg>
