<svg width="30" height="30" viewBox="0 0 30 30" fill="none" xmlns="http://www.w3.org/2000/svg">
<g clip-path="url(#clip0_200_707)">
<rect width="30" height="30" fill="url(#paint0_linear_200_707)"/>
<path d="M5.49609 6.71484C5.2207 6.7793 5.39648 6.76758 5.16797 6.79688C4.18945 7.00781 4.91602 7.19531 5.49609 6.71484ZM22.7051 7.10742C22.7754 7.06055 23.0215 6.82031 22.2539 6.58594C22.3008 6.82617 22.0957 6.80273 22.0957 6.9375C22.6641 7.45313 22.8984 8.34961 23.625 8.53711C23.7656 7.89258 22.9805 7.57617 22.7051 7.10742ZM4.97461 6.52734C5.0625 7.04883 5.45508 5.97656 5.46094 5.5957C5.30859 5.68359 5.15625 5.77148 4.99805 5.8418C5.36719 6.0293 5.04492 6.22852 4.64648 6.52734C3.83789 7.53516 5.40234 5.74219 4.97461 6.52734ZM15 2.08047e-07C6.71484 9.31336e-08 -1.79129e-07 6.71484 -4.00149e-07 15C-6.21012e-07 23.2793 6.71484 30 15 30C23.2852 30 30 23.2793 30 15C30 6.71484 23.2852 3.2296e-07 15 2.08047e-07ZM15.3984 5.02734L15.4687 5.05078C15.1875 5.41406 16.9336 6.47461 15.6797 6.5625C14.5078 6.89648 16.1719 6.25781 15.2637 6.36914C15.7441 5.70117 14.8828 5.68945 15.3984 5.02734ZM8.28516 5.98828C7.86328 5.63672 6.53906 6.46875 7.00195 6.26953C8.15039 5.81836 7.07812 6.31641 7.34766 6.85547C7.10156 7.36523 7.26562 6.35156 6.65625 6.95508C6.2168 7.05469 5.13867 8.05078 5.27344 7.74609C5.23828 8.2207 3.99023 8.7832 3.82031 9.57422C3.41016 10.6699 3.7207 9.5332 3.64453 9.10547C3.05859 8.36133 1.99219 10.3652 2.30859 11.1562C2.8418 10.2187 2.80078 11.0566 2.41406 11.4727C2.80664 12.1934 2.05664 13.1309 2.80078 13.6641C3.12891 13.7402 3.78516 12.5625 3.49805 13.7871C3.69727 12.7266 4.04883 14.0391 4.61719 13.7461C4.65234 14.3027 4.99805 14.0449 5.07422 14.7187C6.02344 14.6484 6.89062 16.2539 5.75977 16.5586C5.92969 16.5117 6.26367 16.8105 6.65039 16.582C7.30664 17.1035 9.03516 17.168 9.08203 18.457C7.89258 19.0254 8.78906 20.584 7.75781 21.1406C6.57422 20.9648 7.35352 22.5996 6.85547 22.4121C7.05469 23.5898 5.66016 22.2598 6.19922 22.9102C7.18945 23.5195 5.76562 23.3965 6.21094 23.8418C5.71289 23.7363 6.52148 24.7676 6.65625 25.1484C7.37109 26.3086 6.04102 24.8906 5.64844 24.5039C5.27344 23.7539 4.38867 22.3184 4.14258 21.1406C4.00195 19.4297 2.67773 18.2813 2.37305 16.6113C2.06836 15.6797 3.21094 14.1855 2.5957 13.6641C2.0625 13.248 2.2793 11.8242 1.96289 11.0742C2.75391 7.64648 5.26758 4.75781 8.28516 3.04688C7.97461 3.27539 10.0605 2.45508 9.82031 2.6543C9.75586 2.80078 11.0391 2.09766 11.8125 1.99219C11.7305 2.00391 9.80273 2.69531 10.3359 2.60156C9.50977 3.00586 10.2539 2.77734 10.6641 2.57227C9.84375 3.17578 9.21094 3.00586 8.2793 3.53906C7.3418 3.78516 7.53516 4.75781 6.86719 5.24414C7.25977 5.31445 8.24414 4.23047 8.81836 3.84961C10.1367 3.21094 8.15039 5.00977 9.4043 4.23633C8.98242 4.62891 9.07031 5.25586 8.8125 5.43164C8.68359 5.39648 9.32227 5.73633 8.28516 5.98828ZM10.3359 3.29297C10.2012 3.47461 10.0137 3.86719 9.90234 3.62695C9.75 3.70313 9.69141 4.03125 9.4043 3.76758C9.57422 3.64453 9.75 3.35156 9.41602 3.5332C9.56836 3.36914 10.9277 2.90625 10.8516 2.73047C11.0918 2.57813 11.0684 2.50195 10.793 2.5957C10.6523 2.54883 11.127 2.15039 11.7598 2.09766C11.8477 2.09766 11.8828 2.15625 11.7246 2.13867C10.7695 2.43164 11.1797 2.34961 11.8242 2.13867C11.5781 2.2793 11.4082 2.32031 11.3672 2.38477C12.0117 2.15039 11.332 2.55469 11.4785 2.52539C11.2969 2.61914 11.5078 2.64844 11.1562 2.7832C11.2207 2.73047 10.582 3.16406 10.9629 3.03516C10.5938 3.38672 10.4297 3.39258 10.3359 3.29297ZM10.8984 4.13086C10.9102 3.56836 11.7188 3.21094 11.6191 3.18164C12.6152 2.71289 11.2734 3.19922 12.0586 2.77734C12.3516 2.74805 12.9727 1.81055 13.834 1.75195C14.7832 1.46484 14.3437 1.76953 15.0469 1.5L14.9062 1.61719C14.7832 1.63477 14.9355 1.85156 14.4902 2.17969C14.4434 2.68945 13.6406 2.45508 14.0391 3C13.7813 2.63086 13.3945 2.98828 13.8809 3.02344C13.3594 3.42188 12.1465 3.49219 11.5664 4.1543C11.1914 4.69336 10.8457 4.52344 10.8984 4.13086ZM15.0645 6.00586C14.666 6.9668 14.2793 5.86523 14.9824 5.68945C15.1582 5.7832 15.2285 5.8125 15.0645 6.00586ZM13.5645 4.08398C13.4473 3.65039 13.541 3.87891 14.2383 3.67383C14.7187 4.01953 13.8105 4.24805 13.5645 4.08398ZM24.4746 21.2813C23.9238 20.332 25.1426 19.4531 25.5527 18.6562C25.5 19.5879 25.3828 20.5078 24.4746 21.2813ZM26.5488 10.4355C25.9512 10.4824 25.4121 10.623 24.873 10.2832C23.6309 8.92383 25.1016 11.8184 25.5117 10.6348C26.9883 11.1973 25.4883 13.623 24.5566 13.3711C24.0352 12.2461 23.3906 11.0098 22.2539 10.459C23.127 11.4258 23.5605 12.6152 24.498 13.4883C24.5625 14.707 25.7988 13.043 25.7227 13.9863C25.8398 15.6094 23.8887 16.582 24.2285 18.2109C24.9551 19.6934 22.8281 19.9629 23.0684 21.293C22.2129 22.248 21.2988 23.5371 19.7637 23.332C19.7637 22.5234 19.3535 21.8379 19.2598 21.0059C18.4277 19.9512 20.1387 18.8203 19.0781 17.7187C17.8535 17.4434 19.3301 15.7559 18.0703 15.9141C17.3145 15.1582 16.207 15.8906 15.123 15.8965C13.7637 16.0254 12.3633 14.2266 12.9668 12.9551C12.4863 11.6309 14.4902 11.2441 14.543 10.0781C15.5039 9.27539 16.8691 9.375 18.1699 9.1875C18.0762 10.1191 19.0605 10.125 19.8047 10.4355C20.2207 9.42773 21.5156 10.5996 22.4004 9.96094C22.7051 8.47266 21.5391 9.36914 20.8711 8.89453C20.0625 7.71094 22.5996 8.28516 22.3359 7.66406C21.3516 7.6582 21.9082 6.45117 21.2109 7.125C21.8379 7.23633 21.0996 7.72852 21.1172 7.16602C20.168 6.89063 21.082 8.24414 20.6016 8.37305C19.8691 8.06836 20.2148 8.71875 20.291 8.81836C19.9746 9.50391 19.5879 7.81055 18.6914 7.85742C17.8008 7.04297 18.3398 8.22656 19.1133 8.41992C18.9492 8.4668 19.207 9.14063 19.002 8.85352C18.3633 7.97461 17.1504 7.38867 16.4297 8.4668C16.3535 9.47461 14.3027 9.76172 14.6309 8.58398C14.1504 7.36523 16.1191 8.54883 15.9375 7.57617C14.6719 6.73828 16.2832 7.00781 16.7109 6.22266C17.6836 6.25195 16.752 5.42578 17.209 5.18555C17.1621 6.08203 17.9531 5.91211 18.5801 5.74219C18.4277 5.22656 18.9551 5.24414 18.6328 4.81641C20.0859 4.23633 17.5254 5.08594 18.041 3.81445C17.4141 3.38086 17.7773 4.76953 18.041 4.91602C18.0586 5.34375 17.6953 5.87109 17.1973 4.97461C16.4707 5.44922 16.5469 4.49414 16.5 4.59375C16.418 4.22461 17.0508 4.20703 17.0566 3.5625C17.0039 3.15234 17.0156 2.93555 17.3086 2.91211C17.332 2.9707 18.5098 2.98828 18.9258 3.47461C17.7891 3.24609 18.7559 3.66211 19.2656 3.89648C18.7207 3.46875 19.4824 3.89648 19.0371 3.41016C19.2129 3.44531 18.5508 2.74219 19.2305 3.35742C18.8613 2.91797 19.9512 3.04688 19.3066 2.71875C20.25 2.98242 19.6934 2.74219 19.1367 2.50195C17.6016 1.58789 21.8496 3.73828 20.1152 2.7832C21.2227 3.02344 17.748 1.92773 19.3301 2.4082C18.7266 2.14453 19.3125 2.29102 19.8574 2.46094C18.8789 2.15625 17.4141 1.58789 17.4727 1.56445C17.8125 1.58789 18.1465 1.66406 18.4688 1.75781C19.4707 2.05664 18.1816 1.6875 18.457 1.69336C21.9023 2.57813 24.9199 4.88672 26.7539 7.9043C27.1816 8.35547 28.3477 11.3379 27.7383 10.0137C28.0137 11.0684 28.0547 12.2051 28.2012 13.2832C27.8965 12.9434 27.5566 11.6895 27.2637 10.9922C27.1406 11.2617 27 10.6113 26.5488 10.4355Z" fill="url(#paint1_linear_200_707)"/>
</g>
<defs>
<linearGradient id="paint0_linear_200_707" x1="15" y1="0" x2="15" y2="30" gradientUnits="userSpaceOnUse">
<stop stop-color="#2F2F2F" stop-opacity="0"/>
<stop offset="1" stop-color="#999999" stop-opacity="0"/>
</linearGradient>
<linearGradient id="paint1_linear_200_707" x1="15" y1="2.08047e-07" x2="15" y2="30" gradientUnits="userSpaceOnUse">
<stop stop-color="#99FC7C"/>
<stop offset="1" stop-color="#50F49C"/>
</linearGradient>
<clipPath id="clip0_200_707">
<rect width="30" height="30" fill="white"/>
</clipPath>
</defs>
</svg>
