<svg width="22" height="20" viewBox="0 0 22 20" fill="none" xmlns="http://www.w3.org/2000/svg">
<path fill-rule="evenodd" clip-rule="evenodd" d="M18.1413 0H3.05883C1.37664 0 0 1.29858 0 2.88569V17.1145C0 18.7016 1.37664 20 3.05883 20H18.1413C19.8237 20 21.2001 18.7016 21.2001 17.1145V2.88569C21.2001 1.29858 19.8237 0 18.1413 0Z" fill="black"/>
<path fill-rule="evenodd" clip-rule="evenodd" d="M4.09766 4.349H7.9375L11.1472 8.307L14.6706 4.349C15.138 4.349 15.6049 4.349 16.0721 4.349L11.8153 9.13098L17.1027 15.6512H13.2629L9.80628 11.3884L6.01173 15.6512C5.5445 15.6512 5.07712 15.6512 4.61019 15.6512L9.1382 10.5644L4.09766 4.349ZM6.24182 5.3483L13.7864 14.6517H14.9586L7.41417 5.3483H6.24182Z" fill="white"/>
</svg>
